<svg xmlns="http://www.w3.org/2000/svg" fill="#545D61" viewBox="0 0 20 20"><path fill-rule="evenodd" clip-rule="evenodd" d="M10 20c5.523 0 10-4.477 10-10S15.523 0 10 0 0 4.477 0 10s4.477 10 10 10zm-2.908-8.75c.152 0 .298.056.418.148a4.204 4.204 0 002.558.864c.963 0 1.851-.323 2.563-.868a.675.675 0 01.408-.144c.443 0 .739.451.485.815a4.224 4.224 0 01-6.926.017c-.261-.37.04-.832.494-.832zm5.996-3.35a1.14 1.14 0 01-1.138 1.142 1.14 1.14 0 01-1.137-1.143c0-.631.51-1.143 1.137-1.143A1.14 1.14 0 0113.088 7.9zM8.159 9.041a1.14 1.14 0 001.138-1.143 1.14 1.14 0 00-1.138-1.143A1.14 1.14 0 007.022 7.9c0 .631.51 1.143 1.137 1.143z"/></svg>