<svg width="468" height="230" fill="none" xmlns="http://www.w3.org/2000/svg"><mask id="a" maskUnits="userSpaceOnUse" x="0" y="0" width="468" height="230"><path fill="#000" d="M0 0h468v230H0z"/></mask><g mask="url(#a)"><path fill="#000" d="M0 0h468v230H0z"/><path d="M24 62c0-11.046 8.954-20 20-20h85c11.046 0 20 8.954 20 20s-8.954 20-20 20H44c-11.046 0-20-8.954-20-20z" fill="#000"/><rect x="30" y="48" width="28" height="28" rx="14" fill="#5FBB90"/><path d="M66.3 67h1.26l.765-2.055h4.71l.78 2.055h1.26l-3.78-10.5H70.08L66.3 67zm2.4-3.135l1.965-5.7h.03l1.98 5.7H68.7zM76.55 67h1.245V56.05H76.55V67zm4.924-5.13c0-.9.735-1.935 2.04-1.935 1.575 0 2.46 1.155 2.46 3.09 0 1.935-.87 3.09-2.46 3.09-1.2 0-2.04-.825-2.04-1.725v-2.52zm-1.23 8.505h1.23v-4.14h.03c.285.405 1.14.99 2.22.99 2.04 0 3.465-1.605 3.465-4.2s-1.53-4.2-3.465-4.2c-1.14 0-1.95.57-2.28.99h-.03v-.765h-1.17v11.325zM89.109 67h1.23v-4.995c0-1.215.825-2.055 2.13-2.055 1.29 0 1.845.855 1.845 2.19V67h1.23v-5.19c0-1.98-1.215-2.985-2.85-2.985-.975 0-1.89.435-2.325 1.02h-.03V56.05h-1.23V67zm13.426 0h1.08v-5.355c0-2.025-1.245-2.82-2.985-2.82-1.725 0-2.76 1.02-3 2.355l1.11.315c.195-.885.69-1.575 1.935-1.575 1.2 0 1.665.555 1.665 1.185 0 .78-.855 1.005-2.28 1.365-1.935.495-2.67 1.17-2.67 2.49 0 1.215.825 2.265 2.685 2.265 1.425 0 2.205-.705 2.43-1.095h.03V67zm-2.19-3.585c1.635-.45 1.935-.72 2.04-.945h.03v1.98c0 .885-.735 1.68-2.25 1.68-1.185 0-1.575-.525-1.575-1.245 0-.66.33-1.08 1.755-1.47zM109.716 67h5.805v-1.14h-4.56V56.5h-1.245V67zm7.515 0h1.23v-7.95h-1.23V67zm-.09-9.555h1.41V56.05h-1.41v1.395zm3.255 6.855c.165 1.575 1.155 2.925 3.375 2.925 2.19 0 3.03-1.215 3.03-2.325-.015-1.245-.615-1.92-2.715-2.52-1.89-.54-2.265-.72-2.265-1.395 0-.54.51-1.11 1.62-1.11 1.155 0 1.74.6 2.025 1.515l1.065-.285c-.315-1.275-1.245-2.28-3.09-2.28-1.8 0-2.76 1.08-2.76 2.19 0 1.17.735 1.755 2.67 2.295 1.86.51 2.295.795 2.295 1.59 0 .72-.585 1.26-1.89 1.26-1.335 0-2.055-.705-2.205-2.085l-1.155.225zm8.535.39c0 1.485.585 2.31 2.13 2.31h.66v-1.185h-.6c-.81 0-.975-.39-.975-1.275v-4.395h1.95V59.05h-1.965V57.1h-1.17v1.95h-1.14v1.095h1.11v4.545z" fill="#fff"/><path d="M44 43h85v-2H44v2zm85 38H44v2h85v-2zm-85 0c-10.493 0-19-8.507-19-19h-2c0 11.598 9.402 21 21 21v-2zm104-19c0 10.493-8.507 19-19 19v2c11.598 0 21-9.402 21-21h-2zm-19-19c10.493 0 19 8.507 19 19h2c0-11.598-9.402-21-21-21v2zm-85-2c-11.598 0-21 9.402-21 21h2c0-10.493 8.507-19 19-19v-2z" fill="#545D61"/><path d="M157 62c0-11.046 8.954-20 20-20h78c11.046 0 20 8.954 20 20s-8.954 20-20 20h-78c-11.046 0-20-8.954-20-20z" fill="#000"/><rect x="163" y="48" width="28" height="28" rx="14" fill="#89C6FF"/><path d="M200.425 67h3.78c2.595 0 3.705-1.215 3.705-3.105 0-1.425-.855-2.265-1.695-2.535v-.045c.72-.315 1.305-.975 1.305-2.1 0-1.545-1.17-2.715-3.06-2.715h-4.035V67zm1.245-6.06v-3.3h2.55c1.29 0 2.07.57 2.07 1.65 0 1.05-.645 1.65-2.055 1.65h-2.565zm0 4.92v-3.81h2.4c1.74 0 2.61.48 2.61 1.845 0 1.425-.945 1.965-2.64 1.965h-2.37zm13.751-1.305c-.285.525-.765 1.56-2.37 1.56-1.65 0-2.415-1.32-2.43-2.73h5.97v-.36c0-2.655-1.485-4.2-3.57-4.2-2.1 0-3.63 1.62-3.63 4.2s1.56 4.2 3.69 4.2c1.74 0 2.805-.99 3.33-2.025l-.99-.645zm-4.77-2.145c.015-.975.66-2.475 2.37-2.475 1.725 0 2.325 1.32 2.355 2.475h-4.725zm8.151 2.28c0 1.485.585 2.31 2.13 2.31h.66v-1.185h-.6c-.81 0-.975-.39-.975-1.275v-4.395h1.95V59.05h-1.965V57.1h-1.17v1.95h-1.14v1.095h1.11v4.545zm9.494 2.31h1.08v-5.355c0-2.025-1.245-2.82-2.985-2.82-1.725 0-2.76 1.02-3 2.355l1.11.315c.195-.885.69-1.575 1.935-1.575 1.2 0 1.665.555 1.665 1.185 0 .78-.855 1.005-2.28 1.365-1.935.495-2.67 1.17-2.67 2.49 0 1.215.825 2.265 2.685 2.265 1.425 0 2.205-.705 2.43-1.095h.03V67zm-2.19-3.585c1.635-.45 1.935-.72 2.04-.945h.03v1.98c0 .885-.735 1.68-2.25 1.68-1.185 0-1.575-.525-1.575-1.245 0-.66.33-1.08 1.755-1.47zM235.477 67h5.805v-1.14h-4.56V56.5h-1.245V67zm7.516 0h1.23v-7.95h-1.23V67zm-.09-9.555h1.41V56.05h-1.41v1.395zm3.255 6.855c.165 1.575 1.155 2.925 3.375 2.925 2.19 0 3.03-1.215 3.03-2.325-.015-1.245-.615-1.92-2.715-2.52-1.89-.54-2.265-.72-2.265-1.395 0-.54.51-1.11 1.62-1.11 1.155 0 1.74.6 2.025 1.515l1.065-.285c-.315-1.275-1.245-2.28-3.09-2.28-1.8 0-2.76 1.08-2.76 2.19 0 1.17.735 1.755 2.67 2.295 1.86.51 2.295.795 2.295 1.59 0 .72-.585 1.26-1.89 1.26-1.335 0-2.055-.705-2.205-2.085l-1.155.225zm8.534.39c0 1.485.585 2.31 2.13 2.31h.66v-1.185h-.6c-.81 0-.975-.39-.975-1.275v-4.395h1.95V59.05h-1.965V57.1h-1.17v1.95h-1.14v1.095h1.11v4.545z" fill="#fff"/><path d="M177 43h78v-2h-78v2zm78 38h-78v2h78v-2zm-78 0c-10.493 0-19-8.507-19-19h-2c0 11.598 9.402 21 21 21v-2zm97-19c0 10.493-8.507 19-19 19v2c11.598 0 21-9.402 21-21h-2zm-19-19c10.493 0 19 8.507 19 19h2c0-11.598-9.402-21-21-21v2zm-78-2c-11.598 0-21 9.402-21 21h2c0-10.493 8.507-19 19-19v-2z" fill="#545D61"/><path d="M283 62c0-11.046 8.954-20 20-20h98c11.046 0 20 8.954 20 20s-8.954 20-20 20h-98c-11.046 0-20-8.954-20-20z" fill="#000"/><rect x="289" y="48" width="28" height="28" rx="14" fill="#997AEC"/><path d="M330.265 67.225c2.355 0 4.02-1.575 4.02-4.35v-1.02H330.4v1.14h2.64c.045 1.905-1.035 3.06-2.775 3.06-1.755 0-3.135-1.425-3.135-4.41 0-2.88 1.455-4.185 3.135-4.185 1.695 0 2.4 1.14 2.685 2.505l1.245-.225c-.345-2.04-1.845-3.465-3.93-3.465-2.28 0-4.44 1.785-4.44 5.37 0 4.005 2.13 5.58 4.44 5.58zM340.902 67h1.08v-5.355c0-2.025-1.245-2.82-2.985-2.82-1.725 0-2.76 1.02-3 2.355l1.11.315c.195-.885.69-1.575 1.935-1.575 1.2 0 1.665.555 1.665 1.185 0 .78-.855 1.005-2.28 1.365-1.935.495-2.67 1.17-2.67 2.49 0 1.215.825 2.265 2.685 2.265 1.425 0 2.205-.705 2.43-1.095h.03V67zm-2.19-3.585c1.635-.45 1.935-.72 2.04-.945h.03v1.98c0 .885-.735 1.68-2.25 1.68-1.185 0-1.575-.525-1.575-1.245 0-.66.33-1.08 1.755-1.47zM344.283 67h1.215v-5.145c0-1.02.48-1.905 1.71-1.905 1.125 0 1.62.69 1.62 2.01V67h1.185v-5.145c0-1.2.645-1.905 1.74-1.905 1.11 0 1.62.69 1.62 2.01V67h1.185v-5.415c0-1.695-1.065-2.76-2.745-2.76-1.08 0-1.89.585-2.235 1.17h-.03c-.33-.585-1.02-1.17-2.1-1.17-.855 0-1.65.42-2.025.99h-.03v-.765h-1.11V67zm12.644 0h1.215v-5.145c0-1.02.48-1.905 1.71-1.905 1.125 0 1.62.69 1.62 2.01V67h1.185v-5.145c0-1.2.645-1.905 1.74-1.905 1.11 0 1.62.69 1.62 2.01V67h1.185v-5.415c0-1.695-1.065-2.76-2.745-2.76-1.08 0-1.89.585-2.235 1.17h-.03c-.33-.585-1.02-1.17-2.1-1.17-.855 0-1.65.42-2.025.99h-.03v-.765h-1.11V67zm17.264 0h1.08v-5.355c0-2.025-1.245-2.82-2.985-2.82-1.725 0-2.76 1.02-3 2.355l1.11.315c.195-.885.69-1.575 1.935-1.575 1.2 0 1.665.555 1.665 1.185 0 .78-.855 1.005-2.28 1.365-1.935.495-2.67 1.17-2.67 2.49 0 1.215.825 2.265 2.685 2.265 1.425 0 2.205-.705 2.43-1.095h.03V67zm-2.19-3.585c1.635-.45 1.935-.72 2.04-.945h.03v1.98c0 .885-.735 1.68-2.25 1.68-1.185 0-1.575-.525-1.575-1.245 0-.66.33-1.08 1.755-1.47zM381.372 67h5.805v-1.14h-4.56V56.5h-1.245V67zm7.516 0h1.23v-7.95h-1.23V67zm-.09-9.555h1.41V56.05h-1.41v1.395zm3.255 6.855c.165 1.575 1.155 2.925 3.375 2.925 2.19 0 3.03-1.215 3.03-2.325-.015-1.245-.615-1.92-2.715-2.52-1.89-.54-2.265-.72-2.265-1.395 0-.54.51-1.11 1.62-1.11 1.155 0 1.74.6 2.025 1.515l1.065-.285c-.315-1.275-1.245-2.28-3.09-2.28-1.8 0-2.76 1.08-2.76 2.19 0 1.17.735 1.755 2.67 2.295 1.86.51 2.295.795 2.295 1.59 0 .72-.585 1.26-1.89 1.26-1.335 0-2.055-.705-2.205-2.085l-1.155.225zm8.534.39c0 1.485.585 2.31 2.13 2.31h.66v-1.185h-.6c-.81 0-.975-.39-.975-1.275v-4.395h1.95V59.05h-1.965V57.1h-1.17v1.95h-1.14v1.095h1.11v4.545z" fill="#fff"/><path d="M303 43h98v-2h-98v2zm98 38h-98v2h98v-2zm-98 0c-10.493 0-19-8.507-19-19h-2c0 11.598 9.402 21 21 21v-2zm117-19c0 10.493-8.507 19-19 19v2c11.598 0 21-9.402 21-21h-2zm-19-19c10.493 0 19 8.507 19 19h2c0-11.598-9.402-21-21-21v2zm-98-2c-11.598 0-21 9.402-21 21h2c0-10.493 8.507-19 19-19v-2z" fill="#545D61"/><path d="M294 114c0-11.046 8.954-20 20-20h68c11.046 0 20 8.954 20 20s-8.954 20-20 20h-68c-11.046 0-20-8.954-20-20z" fill="#000"/><rect x="300" y="100" width="28" height="28" rx="14" fill="#68B3BE"/><path d="M337.425 119h6.315v-1.14h-5.07v-3.705h4.65v-1.11h-4.65v-3.405h5.07v-1.14h-6.315V119zm8.824-2.31c0 1.485.585 2.31 2.13 2.31h.66v-1.185h-.6c-.81 0-.975-.39-.975-1.275v-4.395h1.95v-1.095h-1.965v-1.95h-1.17v1.95h-1.14v1.095h1.11v4.545zm9.494 2.31h1.08v-5.355c0-2.025-1.245-2.82-2.985-2.82-1.725 0-2.76 1.02-3 2.355l1.11.315c.195-.885.69-1.575 1.935-1.575 1.2 0 1.665.555 1.665 1.185 0 .78-.855 1.005-2.28 1.365-1.935.495-2.67 1.17-2.67 2.49 0 1.215.825 2.265 2.685 2.265 1.425 0 2.205-.705 2.43-1.095h.03v.87zm-2.19-3.585c1.635-.45 1.935-.72 2.04-.945h.03v1.98c0 .885-.735 1.68-2.25 1.68-1.185 0-1.575-.525-1.575-1.245 0-.66.33-1.08 1.755-1.47zm9.37 3.585h5.805v-1.14h-4.56v-9.36h-1.245V119zm7.516 0h1.23v-7.95h-1.23V119zm-.09-9.555h1.41v-1.395h-1.41v1.395zm3.255 6.855c.165 1.575 1.155 2.925 3.375 2.925 2.19 0 3.03-1.215 3.03-2.325-.015-1.245-.615-1.92-2.715-2.52-1.89-.54-2.265-.72-2.265-1.395 0-.54.51-1.11 1.62-1.11 1.155 0 1.74.6 2.025 1.515l1.065-.285c-.315-1.275-1.245-2.28-3.09-2.28-1.8 0-2.76 1.08-2.76 2.19 0 1.17.735 1.755 2.67 2.295 1.86.51 2.295.795 2.295 1.59 0 .72-.585 1.26-1.89 1.26-1.335 0-2.055-.705-2.205-2.085l-1.155.225zm8.534.39c0 1.485.585 2.31 2.13 2.31h.66v-1.185h-.6c-.81 0-.975-.39-.975-1.275v-4.395h1.95v-1.095h-1.965v-1.95h-1.17v1.95h-1.14v1.095h1.11v4.545z" fill="#fff"/><path d="M314 95h68v-2h-68v2zm68 38h-68v2h68v-2zm-68 0c-10.493 0-19-8.507-19-19h-2c0 11.598 9.402 21 21 21v-2zm87-19c0 10.493-8.507 19-19 19v2c11.598 0 21-9.402 21-21h-2zm-19-19c10.493 0 19 8.507 19 19h2c0-11.598-9.402-21-21-21v2zm-68-2c-11.598 0-21 9.402-21 21h2c0-10.493 8.507-19 19-19v-2z" fill="#545D61"/><path d="M410 114c0-11.046 8.954-20 20-20h86c11.046 0 20 8.954 20 20s-8.954 20-20 20h-86c-11.046 0-20-8.954-20-20z" fill="#000"/><rect x="416" y="100" width="28" height="28" rx="14" fill="#FF749A"/><path d="M455.63 119h1.23v-9.36h3.24v-1.14h-7.725v1.14h3.255V119zm6.026 0h1.23v-4.995c0-1.215.825-2.055 2.13-2.055 1.29 0 1.845.855 1.845 2.19V119h1.23v-5.19c0-1.98-1.215-2.985-2.85-2.985-.975 0-1.89.435-2.325 1.02h-.03v-3.795h-1.23V119zm14.312-2.445c-.285.525-.765 1.56-2.37 1.56-1.65 0-2.415-1.32-2.43-2.73h5.97v-.36c0-2.655-1.485-4.2-3.57-4.2-2.1 0-3.63 1.62-3.63 4.2s1.56 4.2 3.69 4.2c1.74 0 2.805-.99 3.33-2.025l-.99-.645zm-4.77-2.145c.015-.975.66-2.475 2.37-2.475 1.725 0 2.325 1.32 2.355 2.475h-4.725zm8.151 2.28c0 1.485.585 2.31 2.13 2.31h.66v-1.185h-.6c-.81 0-.975-.39-.975-1.275v-4.395h1.95v-1.095h-1.965v-1.95h-1.17v1.95h-1.14v1.095h1.11v4.545zm9.494 2.31h1.08v-5.355c0-2.025-1.245-2.82-2.985-2.82-1.725 0-2.76 1.02-3 2.355l1.11.315c.195-.885.69-1.575 1.935-1.575 1.2 0 1.665.555 1.665 1.185 0 .78-.855 1.005-2.28 1.365-1.935.495-2.67 1.17-2.67 2.49 0 1.215.825 2.265 2.685 2.265 1.425 0 2.205-.705 2.43-1.095h.03v.87zm-2.19-3.585c1.635-.45 1.935-.72 2.04-.945h.03v1.98c0 .885-.735 1.68-2.25 1.68-1.185 0-1.575-.525-1.575-1.245 0-.66.33-1.08 1.755-1.47zm9.37 3.585h5.805v-1.14h-4.56v-9.36h-1.245V119zm7.516 0h1.23v-7.95h-1.23V119zm-.09-9.555h1.41v-1.395h-1.41v1.395zm3.255 6.855c.165 1.575 1.155 2.925 3.375 2.925 2.19 0 3.03-1.215 3.03-2.325-.015-1.245-.615-1.92-2.715-2.52-1.89-.54-2.265-.72-2.265-1.395 0-.54.51-1.11 1.62-1.11 1.155 0 1.74.6 2.025 1.515l1.065-.285c-.315-1.275-1.245-2.28-3.09-2.28-1.8 0-2.76 1.08-2.76 2.19 0 1.17.735 1.755 2.67 2.295 1.86.51 2.295.795 2.295 1.59 0 .72-.585 1.26-1.89 1.26-1.335 0-2.055-.705-2.205-2.085l-1.155.225zm8.534.39c0 1.485.585 2.31 2.13 2.31h.66v-1.185h-.6c-.81 0-.975-.39-.975-1.275v-4.395h1.95v-1.095h-1.965v-1.95h-1.17v1.95h-1.14v1.095h1.11v4.545z" fill="#fff"/><path d="M430 95h86v-2h-86v2zm86 38h-86v2h86v-2zm-86 0c-10.493 0-19-8.507-19-19h-2c0 11.598 9.402 21 21 21v-2zm105-19c0 10.493-8.507 19-19 19v2c11.598 0 21-9.402 21-21h-2zm-19-19c10.493 0 19 8.507 19 19h2c0-11.598-9.402-21-21-21v2zm-86-2c-11.598 0-21 9.402-21 21h2c0-10.493 8.507-19 19-19v-2z" fill="#545D61"/><path d="M169 114c0-11.046 8.954-20 20-20h77c11.046 0 20 8.954 20 20s-8.954 20-20 20h-77c-11.046 0-20-8.954-20-20z" fill="#000"/><rect x="175" y="100" width="28" height="28" rx="14" fill="#FE794C"/><path d="M211.825 119h7.32v-1.155h-5.775v-.03l5.895-8.295v-1.02h-7.17v1.14h5.61v.03l-5.88 8.31V119zm14.952-2.445c-.285.525-.765 1.56-2.37 1.56-1.65 0-2.415-1.32-2.43-2.73h5.97v-.36c0-2.655-1.485-4.2-3.57-4.2-2.1 0-3.63 1.62-3.63 4.2s1.56 4.2 3.69 4.2c1.74 0 2.805-.99 3.33-2.025l-.99-.645zm-4.77-2.145c.015-.975.66-2.475 2.37-2.475 1.725 0 2.325 1.32 2.355 2.475h-4.725zm8.151 2.28c0 1.485.585 2.31 2.13 2.31h.66v-1.185h-.6c-.81 0-.975-.39-.975-1.275v-4.395h1.95v-1.095h-1.965v-1.95h-1.17v1.95h-1.14v1.095h1.11v4.545zm9.494 2.31h1.08v-5.355c0-2.025-1.245-2.82-2.985-2.82-1.725 0-2.76 1.02-3 2.355l1.11.315c.195-.885.69-1.575 1.935-1.575 1.2 0 1.665.555 1.665 1.185 0 .78-.855 1.005-2.28 1.365-1.935.495-2.67 1.17-2.67 2.49 0 1.215.825 2.265 2.685 2.265 1.425 0 2.205-.705 2.43-1.095h.03v.87zm-2.19-3.585c1.635-.45 1.935-.72 2.04-.945h.03v1.98c0 .885-.735 1.68-2.25 1.68-1.185 0-1.575-.525-1.575-1.245 0-.66.33-1.08 1.755-1.47zm9.37 3.585h5.805v-1.14h-4.56v-9.36h-1.245V119zm7.516 0h1.23v-7.95h-1.23V119zm-.09-9.555h1.41v-1.395h-1.41v1.395zm3.255 6.855c.165 1.575 1.155 2.925 3.375 2.925 2.19 0 3.03-1.215 3.03-2.325-.015-1.245-.615-1.92-2.715-2.52-1.89-.54-2.265-.72-2.265-1.395 0-.54.51-1.11 1.62-1.11 1.155 0 1.74.6 2.025 1.515l1.065-.285c-.315-1.275-1.245-2.28-3.09-2.28-1.8 0-2.76 1.08-2.76 2.19 0 1.17.735 1.755 2.67 2.295 1.86.51 2.295.795 2.295 1.59 0 .72-.585 1.26-1.89 1.26-1.335 0-2.055-.705-2.205-2.085l-1.155.225zm8.534.39c0 1.485.585 2.31 2.13 2.31h.66v-1.185h-.6c-.81 0-.975-.39-.975-1.275v-4.395h1.95v-1.095h-1.965v-1.95h-1.17v1.95h-1.14v1.095h1.11v4.545z" fill="#fff"/><path d="M189 95h77v-2h-77v2zm77 38h-77v2h77v-2zm-77 0c-10.493 0-19-8.507-19-19h-2c0 11.598 9.402 21 21 21v-2zm96-19c0 10.493-8.507 19-19 19v2c11.598 0 21-9.402 21-21h-2zm-19-19c10.493 0 19 8.507 19 19h2c0-11.598-9.402-21-21-21v2zm-77-2c-11.598 0-21 9.402-21 21h2c0-10.493 8.507-19 19-19v-2z" fill="#545D61"/><path d="M24 114c0-11.046 8.954-20 20-20h97c11.046 0 20 8.954 20 20s-8.954 20-20 20H44c-11.046 0-20-8.954-20-20z" fill="#000"/><rect x="30" y="100" width="28" height="28" rx="14" fill="#FF749A"/><path d="M67.425 119h6.315v-1.14h-5.07v-3.705h4.65v-1.11h-4.65v-3.405h5.07v-1.14h-6.315V119zm9.77-5.13c0-.9.734-1.935 2.04-1.935 1.574 0 2.46 1.155 2.46 3.09 0 1.935-.87 3.09-2.46 3.09-1.2 0-2.04-.825-2.04-1.725v-2.52zm-1.23 8.505h1.23v-4.14h.03c.284.405 1.14.99 2.22.99 2.04 0 3.464-1.605 3.464-4.2s-1.53-4.2-3.465-4.2c-1.14 0-1.95.57-2.28.99h-.03v-.765h-1.17v11.325zm8.264-6.075c.165 1.575 1.155 2.925 3.375 2.925 2.19 0 3.03-1.215 3.03-2.325-.015-1.245-.615-1.92-2.715-2.52-1.89-.54-2.265-.72-2.265-1.395 0-.54.51-1.11 1.62-1.11 1.155 0 1.74.6 2.025 1.515l1.065-.285c-.315-1.275-1.245-2.28-3.09-2.28-1.8 0-2.76 1.08-2.76 2.19 0 1.17.735 1.755 2.67 2.295 1.86.51 2.295.795 2.295 1.59 0 .72-.585 1.26-1.89 1.26-1.335 0-2.055-.705-2.205-2.085l-1.155.225zm8.339 2.7h1.23v-7.95h-1.23V119zm-.09-9.555h1.41v-1.395h-1.41v1.395zM96.333 119h1.245v-10.95h-1.245V119zm6.784-.885c-1.335 0-2.4-1.035-2.4-3.09 0-2.04 1.05-3.09 2.4-3.09 1.32 0 2.34 1.08 2.34 3.09s-1.05 3.09-2.34 3.09zm0 1.11c1.995 0 3.555-1.485 3.555-4.2s-1.665-4.2-3.555-4.2c-1.92 0-3.615 1.485-3.615 4.2s1.59 4.2 3.615 4.2zm5.482-.225h1.23v-5.07c0-1.26.84-1.98 2.055-1.98 1.245 0 1.83.78 1.83 2.22V119h1.215v-5.22c0-1.845-1.155-2.955-2.865-2.955-.93 0-1.815.435-2.235.99h-.03v-.765h-1.2V119zm12.504 0h5.805v-1.14h-4.56v-9.36h-1.245V119zm7.515 0h1.23v-7.95h-1.23V119zm-.09-9.555h1.41v-1.395h-1.41v1.395zm3.255 6.855c.165 1.575 1.155 2.925 3.375 2.925 2.19 0 3.03-1.215 3.03-2.325-.015-1.245-.615-1.92-2.715-2.52-1.89-.54-2.265-.72-2.265-1.395 0-.54.51-1.11 1.62-1.11 1.155 0 1.74.6 2.025 1.515l1.065-.285c-.315-1.275-1.245-2.28-3.09-2.28-1.8 0-2.76 1.08-2.76 2.19 0 1.17.735 1.755 2.67 2.295 1.86.51 2.295.795 2.295 1.59 0 .72-.585 1.26-1.89 1.26-1.335 0-2.055-.705-2.205-2.085l-1.155.225zm8.534.39c0 1.485.585 2.31 2.13 2.31h.66v-1.185h-.6c-.81 0-.975-.39-.975-1.275v-4.395h1.95v-1.095h-1.965v-1.95h-1.17v1.95h-1.14v1.095h1.11v4.545z" fill="#fff"/><path d="M44 95h97v-2H44v2zm97 38H44v2h97v-2zm-97 0c-10.493 0-19-8.507-19-19h-2c0 11.598 9.402 21 21 21v-2zm116-19c0 10.493-8.507 19-19 19v2c11.598 0 21-9.402 21-21h-2zm-19-19c10.493 0 19 8.507 19 19h2c0-11.598-9.402-21-21-21v2zm-97-2c-11.598 0-21 9.402-21 21h2c0-10.493 8.507-19 19-19v-2z" fill="#545D61"/><path d="M429 62c0-11.046 8.954-20 20-20h137c11.046 0 20 8.954 20 20s-8.954 20-20 20H449c-11.046 0-20-8.954-20-20z" fill="#000"/><rect x="435" y="48" width="28" height="28" rx="14" fill="#FD0"/><path d="M449 43h137v-2H449v2zm137 38H449v2h137v-2zm-137 0c-10.493 0-19-8.507-19-19h-2c0 11.598 9.402 21 21 21v-2zm156-19c0 10.493-8.507 19-19 19v2c11.598 0 21-9.402 21-21h-2zm-19-19c10.493 0 19 8.507 19 19h2c0-11.598-9.402-21-21-21v2zm-137-2c-11.598 0-21 9.402-21 21h2c0-10.493 8.507-19 19-19v-2z" fill="#545D61"/><path d="M282 166c0-11.046 8.954-20 20-20h92c11.046 0 20 8.954 20 20s-8.954 20-20 20h-92c-11.046 0-20-8.954-20-20z" fill="#000"/><rect x="288" y="152" width="28" height="28" rx="14" fill="#007BFF"/><path d="M325.425 171h5.805v-1.14h-4.56v-9.36h-1.245V171zm12.046 0h1.08v-5.355c0-2.025-1.245-2.82-2.985-2.82-1.725 0-2.76 1.02-3 2.355l1.11.315c.195-.885.69-1.575 1.935-1.575 1.2 0 1.665.555 1.665 1.185 0 .78-.855 1.005-2.28 1.365-1.935.495-2.67 1.17-2.67 2.49 0 1.215.825 2.265 2.685 2.265 1.425 0 2.205-.705 2.43-1.095h.03v.87zm-2.19-3.585c1.635-.45 1.935-.72 2.04-.945h.03v1.98c0 .885-.735 1.68-2.25 1.68-1.185 0-1.575-.525-1.575-1.245 0-.66.33-1.08 1.755-1.47zm5.57 3.585h1.215v-5.145c0-1.02.48-1.905 1.71-1.905 1.125 0 1.62.69 1.62 2.01V171h1.185v-5.145c0-1.2.645-1.905 1.74-1.905 1.11 0 1.62.69 1.62 2.01V171h1.185v-5.415c0-1.695-1.065-2.76-2.745-2.76-1.08 0-1.89.585-2.235 1.17h-.03c-.33-.585-1.02-1.17-2.1-1.17-.855 0-1.65.42-2.025.99h-.03v-.765h-1.11V171zm17.805-2.64c0 .915-.84 1.755-2.04 1.755-1.59 0-2.415-1.155-2.415-3.09 0-1.935.825-3.09 2.415-3.09 1.32 0 2.04 1.05 2.04 1.965v2.46zm.12 2.64h1.11v-10.95h-1.23v3.765h-.03c-.405-.48-1.125-.99-2.205-.99-1.92 0-3.45 1.605-3.45 4.2 0 2.55 1.35 4.2 3.45 4.2 1.185 0 1.995-.6 2.325-.99h.03V171zm8.175 0h1.08v-5.355c0-2.025-1.245-2.82-2.985-2.82-1.725 0-2.76 1.02-3 2.355l1.11.315c.195-.885.69-1.575 1.935-1.575 1.2 0 1.665.555 1.665 1.185 0 .78-.855 1.005-2.28 1.365-1.935.495-2.67 1.17-2.67 2.49 0 1.215.825 2.265 2.685 2.265 1.425 0 2.205-.705 2.43-1.095h.03v.87zm-2.19-3.585c1.635-.45 1.935-.72 2.04-.945h.03v1.98c0 .885-.735 1.68-2.25 1.68-1.185 0-1.575-.525-1.575-1.245 0-.66.33-1.08 1.755-1.47zm9.371 3.585h5.805v-1.14h-4.56v-9.36h-1.245V171zm7.515 0h1.23v-7.95h-1.23V171zm-.09-9.555h1.41v-1.395h-1.41v1.395zm3.256 6.855c.165 1.575 1.155 2.925 3.375 2.925 2.19 0 3.03-1.215 3.03-2.325-.015-1.245-.615-1.92-2.715-2.52-1.89-.54-2.265-.72-2.265-1.395 0-.54.51-1.11 1.62-1.11 1.155 0 1.74.6 2.025 1.515l1.065-.285c-.315-1.275-1.245-2.28-3.09-2.28-1.8 0-2.76 1.08-2.76 2.19 0 1.17.735 1.755 2.67 2.295 1.86.51 2.295.795 2.295 1.59 0 .72-.585 1.26-1.89 1.26-1.335 0-2.055-.705-2.205-2.085l-1.155.225zm8.534.39c0 1.485.585 2.31 2.13 2.31h.66v-1.185h-.6c-.81 0-.975-.39-.975-1.275v-4.395h1.95v-1.095h-1.965v-1.95h-1.17v1.95h-1.14v1.095h1.11v4.545z" fill="#fff"/><path d="M302 147h92v-2h-92v2zm92 38h-92v2h92v-2zm-92 0c-10.493 0-19-8.507-19-19h-2c0 11.598 9.402 21 21 21v-2zm111-19c0 10.493-8.507 19-19 19v2c11.598 0 21-9.402 21-21h-2zm-19-19c10.493 0 19 8.507 19 19h2c0-11.598-9.402-21-21-21v2zm-92-2c-11.598 0-21 9.402-21 21h2c0-10.493 8.507-19 19-19v-2z" fill="#545D61"/><path d="M422 166c0-11.046 8.954-20 20-20h68c11.046 0 20 8.954 20 20s-8.954 20-20 20h-68c-11.046 0-20-8.954-20-20z" fill="#000"/><rect x="428" y="152" width="28" height="28" rx="14" fill="#FF5000"/><path d="M465.425 171h1.215v-8.76h.03l3.615 8.76h.39l3.615-8.76h.03V171h1.215v-10.5h-1.755l-3.285 8.055h-.03l-3.285-8.055h-1.755V171zm12.639-2.775c0 2.055 1.095 3 2.805 3 1.44 0 2.115-.99 2.115-.99h.03V171h1.2v-7.95h-1.215v4.935c0 1.32-.66 2.1-1.86 2.1-1.32 0-1.845-.555-1.845-2.04v-4.995h-1.23v5.175zM490.467 171h5.805v-1.14h-4.56v-9.36h-1.245V171zm7.516 0h1.23v-7.95h-1.23V171zm-.09-9.555h1.41v-1.395h-1.41v1.395zm3.255 6.855c.165 1.575 1.155 2.925 3.375 2.925 2.19 0 3.03-1.215 3.03-2.325-.015-1.245-.615-1.92-2.715-2.52-1.89-.54-2.265-.72-2.265-1.395 0-.54.51-1.11 1.62-1.11 1.155 0 1.74.6 2.025 1.515l1.065-.285c-.315-1.275-1.245-2.28-3.09-2.28-1.8 0-2.76 1.08-2.76 2.19 0 1.17.735 1.755 2.67 2.295 1.86.51 2.295.795 2.295 1.59 0 .72-.585 1.26-1.89 1.26-1.335 0-2.055-.705-2.205-2.085l-1.155.225zm8.534.39c0 1.485.585 2.31 2.13 2.31h.66v-1.185h-.6c-.81 0-.975-.39-.975-1.275v-4.395h1.95v-1.095h-1.965v-1.95h-1.17v1.95h-1.14v1.095h1.11v4.545z" fill="#fff"/><path d="M442 147h68v-2h-68v2zm68 38h-68v2h68v-2zm-68 0c-10.493 0-19-8.507-19-19h-2c0 11.598 9.402 21 21 21v-2zm87-19c0 10.493-8.507 19-19 19v2c11.598 0 21-9.402 21-21h-2zm-19-19c10.493 0 19 8.507 19 19h2c0-11.598-9.402-21-21-21v2zm-68-2c-11.598 0-21 9.402-21 21h2c0-10.493 8.507-19 19-19v-2z" fill="#545D61"/><path d="M24 166c0-11.046 8.954-20 20-20h73c11.046 0 20 8.954 20 20s-8.954 20-20 20H44c-11.046 0-20-8.954-20-20z" fill="#000"/><rect x="30" y="152" width="28" height="28" rx="14" fill="#FFC657"/><path d="M67.5 171h1.245v-10.5H67.5V171zm7.013-.885c-1.335 0-2.4-1.035-2.4-3.09 0-2.04 1.05-3.09 2.4-3.09 1.32 0 2.34 1.08 2.34 3.09s-1.05 3.09-2.34 3.09zm0 1.11c1.995 0 3.555-1.485 3.555-4.2s-1.665-4.2-3.555-4.2c-1.92 0-3.615 1.485-3.615 4.2s1.59 4.2 3.615 4.2zm5.767-2.535c0 1.485.585 2.31 2.13 2.31h.66v-1.185h-.6c-.81 0-.975-.39-.975-1.275v-4.395h1.95v-1.095H81.48v-1.95h-1.17v1.95h-1.14v1.095h1.11v4.545zm9.494 2.31h1.08v-5.355c0-2.025-1.245-2.82-2.985-2.82-1.725 0-2.76 1.02-3 2.355l1.11.315c.195-.885.69-1.575 1.935-1.575 1.2 0 1.665.555 1.665 1.185 0 .78-.855 1.005-2.28 1.365-1.935.495-2.67 1.17-2.67 2.49 0 1.215.825 2.265 2.685 2.265 1.425 0 2.205-.705 2.43-1.095h.03v.87zm-2.19-3.585c1.635-.45 1.935-.72 2.04-.945h.03v1.98c0 .885-.735 1.68-2.25 1.68-1.185 0-1.575-.525-1.575-1.245 0-.66.33-1.08 1.755-1.47zm9.37 3.585h5.805v-1.14h-4.56v-9.36h-1.245V171zm7.516 0h1.23v-7.95h-1.23V171zm-.09-9.555h1.41v-1.395h-1.41v1.395zm3.255 6.855c.165 1.575 1.155 2.925 3.375 2.925 2.19 0 3.03-1.215 3.03-2.325-.015-1.245-.615-1.92-2.715-2.52-1.89-.54-2.265-.72-2.265-1.395 0-.54.51-1.11 1.62-1.11 1.155 0 1.74.6 2.025 1.515l1.065-.285c-.315-1.275-1.245-2.28-3.09-2.28-1.8 0-2.76 1.08-2.76 2.19 0 1.17.735 1.755 2.67 2.295 1.86.51 2.295.795 2.295 1.59 0 .72-.585 1.26-1.89 1.26-1.335 0-2.055-.705-2.205-2.085l-1.155.225zm8.534.39c0 1.485.585 2.31 2.13 2.31h.66v-1.185h-.6c-.81 0-.975-.39-.975-1.275v-4.395h1.95v-1.095h-1.965v-1.95h-1.17v1.95h-1.14v1.095h1.11v4.545z" fill="#fff"/><path d="M44 147h73v-2H44v2zm73 38H44v2h73v-2zm-73 0c-10.493 0-19-8.507-19-19h-2c0 11.598 9.402 21 21 21v-2zm92-19c0 10.493-8.507 19-19 19v2c11.598 0 21-9.402 21-21h-2zm-19-19c10.493 0 19 8.507 19 19h2c0-11.598-9.402-21-21-21v2zm-73-2c-11.598 0-21 9.402-21 21h2c0-10.493 8.507-19 19-19v-2z" fill="#545D61"/><path d="M145 166c0-11.046 8.954-20 20-20h89c11.046 0 20 8.954 20 20s-8.954 20-20 20h-89c-11.046 0-20-8.954-20-20z" fill="#000"/><rect x="151" y="152" width="28" height="28" rx="14" fill="#D093D0"/><path d="M188.275 171h1.245v-3.63l1.155-1.35h.03l3.585 4.98h1.5l-4.26-5.91 3.84-4.59h-1.56l-4.26 5.13h-.03v-5.13h-1.245V171zm13.382 0h1.08v-5.355c0-2.025-1.245-2.82-2.985-2.82-1.725 0-2.76 1.02-3 2.355l1.11.315c.195-.885.69-1.575 1.935-1.575 1.2 0 1.665.555 1.665 1.185 0 .78-.855 1.005-2.28 1.365-1.935.495-2.67 1.17-2.67 2.49 0 1.215.825 2.265 2.685 2.265 1.425 0 2.205-.705 2.43-1.095h.03v.87zm-2.19-3.585c1.635-.45 1.935-.72 2.04-.945h.03v1.98c0 .885-.735 1.68-2.25 1.68-1.185 0-1.575-.525-1.575-1.245 0-.66.33-1.08 1.755-1.47zm6.801-1.545c0-.9.735-1.935 2.04-1.935 1.575 0 2.46 1.155 2.46 3.09 0 1.935-.87 3.09-2.46 3.09-1.2 0-2.04-.825-2.04-1.725v-2.52zm-1.23 8.505h1.23v-4.14h.03c.285.405 1.14.99 2.22.99 2.04 0 3.465-1.605 3.465-4.2s-1.53-4.2-3.465-4.2c-1.14 0-1.95.57-2.28.99h-.03v-.765h-1.17v11.325zm10.095-8.505c0-.9.735-1.935 2.04-1.935 1.575 0 2.46 1.155 2.46 3.09 0 1.935-.87 3.09-2.46 3.09-1.2 0-2.04-.825-2.04-1.725v-2.52zm-1.23 8.505h1.23v-4.14h.03c.285.405 1.14.99 2.22.99 2.04 0 3.465-1.605 3.465-4.2s-1.53-4.2-3.465-4.2c-1.14 0-1.95.57-2.28.99h-.03v-.765h-1.17v11.325zM227.388 171h1.08v-5.355c0-2.025-1.245-2.82-2.985-2.82-1.725 0-2.76 1.02-3 2.355l1.11.315c.195-.885.69-1.575 1.935-1.575 1.2 0 1.665.555 1.665 1.185 0 .78-.855 1.005-2.28 1.365-1.935.495-2.67 1.17-2.67 2.49 0 1.215.825 2.265 2.685 2.265 1.425 0 2.205-.705 2.43-1.095h.03v.87zm-2.19-3.585c1.635-.45 1.935-.72 2.04-.945h.03v1.98c0 .885-.735 1.68-2.25 1.68-1.185 0-1.575-.525-1.575-1.245 0-.66.33-1.08 1.755-1.47zm9.37 3.585h5.805v-1.14h-4.56v-9.36h-1.245V171zm7.516 0h1.23v-7.95h-1.23V171zm-.09-9.555h1.41v-1.395h-1.41v1.395zm3.255 6.855c.165 1.575 1.155 2.925 3.375 2.925 2.19 0 3.03-1.215 3.03-2.325-.015-1.245-.615-1.92-2.715-2.52-1.89-.54-2.265-.72-2.265-1.395 0-.54.51-1.11 1.62-1.11 1.155 0 1.74.6 2.025 1.515l1.065-.285c-.315-1.275-1.245-2.28-3.09-2.28-1.8 0-2.76 1.08-2.76 2.19 0 1.17.735 1.755 2.67 2.295 1.86.51 2.295.795 2.295 1.59 0 .72-.585 1.26-1.89 1.26-1.335 0-2.055-.705-2.205-2.085l-1.155.225zm8.534.39c0 1.485.585 2.31 2.13 2.31h.66v-1.185h-.6c-.81 0-.975-.39-.975-1.275v-4.395h1.95v-1.095h-1.965v-1.95h-1.17v1.95h-1.14v1.095h1.11v4.545z" fill="#fff"/><path d="M165 147h89v-2h-89v2zm89 38h-89v2h89v-2zm-89 0c-10.493 0-19-8.507-19-19h-2c0 11.598 9.402 21 21 21v-2zm108-19c0 10.493-8.507 19-19 19v2c11.598 0 21-9.402 21-21h-2zm-19-19c10.493 0 19 8.507 19 19h2c0-11.598-9.402-21-21-21v2zm-89-2c-11.598 0-21 9.402-21 21h2c0-10.493 8.507-19 19-19v-2z" fill="#545D61"/></g></svg>