<svg width="468" height="296" fill="none" xmlns="http://www.w3.org/2000/svg"><g clip-path="url(#clip0_5_2)"><path d="M-9.07 161.988c25.657 0 26.84 52.241 55.162 52.241 28.32 0 37.154-106.95 65.364-106.955 29.798-.005 34.144 124.434 66.517 124.426 37.355-.01 56.114-167.299 83.81-167.507 33.26-.2 36.278 131.297 60.475 131.199 30.095-.117 27.48-115.383 52.422-122.19 28.427-7.75 36.115 110.537 57.096 110.093 20.943-.443 30.791-90.512 31.432-92.007" stroke="#00C805" stroke-width="2"/><g fill="#00C805"><path d="M369.938 70.01a9.5 9.5 0 019.5 9.5 9.5 9.5 0 01-9.5 9.5 9.5 9.5 0 01-9.5-9.5 9.5 9.5 0 019.5-9.5z"/><path opacity=".33" d="M369.938 54.01c14.083 0 25.5 11.416 25.5 25.5 0 14.082-11.417 25.499-25.5 25.499s-25.5-11.417-25.5-25.5 11.417-25.5 25.5-25.5z"/></g></g><defs><clipPath id="clip0_5_2"><path fill="#fff" d="M0 0h468v296H0z"/></clipPath></defs></svg>