<svg xmlns="http://www.w3.org/2000/svg" viewBox="0 0 48 48"><path d="M22.724 32.75l-.185.061c-1.185.393-2.939.996-4.513 1.717-.085.04-.14.15-.14.15l-.108.244-.005.012c-.177.4-.42 1-.523 1.245l-.082.193a.081.081 0 00.072.112.079.079 0 00.037-.009l.19-.09c.432-.204.975-.513 1.548-.784l.02-.009a1360.36 1360.36 0 003.053-1.444s.12-.063.179-.182l.553-1.104a.08.08 0 00-.097-.112m-4.42-1.712c.077-.152.436-.839.517-.992l.015-.027a68.172 68.172 0 018.697-12.642l.093-.108a.105.105 0 00.013-.12.109.109 0 00-.11-.055l-.14.02a69.798 69.798 0 00-6.652 1.247.877.877 0 00-.39.236 74.578 74.578 0 00-4.646 6.158c-.072.107-.08.364-.08.364s.362 2.762.888 4.797c-1.304 3.731-2.467 8.647-2.467 8.647a.107.107 0 00.017.093.11.11 0 00.084.044h.742a.107.107 0 00.103-.07l.052-.139a68.36 68.36 0 012.575-6.063c.222-.46.69-1.39.69-1.39"/><path d="M28.62 18.183l-.002-.14a.108.108 0 00-.189-.07l-.092.107a67.06 67.06 0 00-9.813 14.922l-.06.125a.107.107 0 00.019.12.107.107 0 00.119.025l.129-.053a64.253 64.253 0 016.698-2.343.509.509 0 00.312-.255C26.723 28.717 29 25.03 29 25.03c.058-.084.044-.207.044-.207s-.4-4.41-.424-6.641"/><path d="M31.076 11.089c-1.14-.024-2.496.22-4.032.724-.23.08-.413.207-.577.368a74.282 74.282 0 00-4.517 4.608l-.11.122a.106.106 0 00-.012.124c.023.04.07.06.115.051l.16-.034a69.76 69.76 0 016.943-1.12.542.542 0 01.42.137.53.53 0 01.174.403 62.82 62.82 0 00.248 6.765l.013.146a.106.106 0 00.079.093c.06.005.094-.012.116-.042l.084-.119a63.606 63.606 0 014.176-5.304.878.878 0 00.239-.477c.465-2.964-.254-5.156-.896-5.71-.558-.481-1.367-.708-2.623-.735z"/></svg>