<svg width="682" height="275" fill="none" xmlns="http://www.w3.org/2000/svg"><path d="M3.071 238.133a3.072 3.072 0 10-.001-6.144 3.072 3.072 0 00.001 6.144zm0 12.289a3.072 3.072 0 10-.001-6.144 3.072 3.072 0 00.001 6.144zm0 12.289a3.072 3.072 0 10-.001-6.144 3.072 3.072 0 00.001 6.144z" fill="#00C805"/><path opacity=".5" d="M3.071 275a3.072 3.072 0 10-.001-6.144 3.072 3.072 0 000 6.144z" fill="#00C805"/><path d="M15.356 250.422a3.072 3.072 0 10-.001-6.144 3.072 3.072 0 00.001 6.144zm0 12.289a3.072 3.072 0 10-.001-6.144 3.072 3.072 0 00.001 6.144z" fill="#00C805"/><path opacity=".5" d="M15.356 275a3.072 3.072 0 10-.001-6.144 3.072 3.072 0 00.001 6.144zm12.285-24.578a3.072 3.072 0 10-.001-6.144 3.072 3.072 0 00.001 6.144z" fill="#00C805"/><path d="M27.641 262.711a3.072 3.072 0 10-.001-6.144 3.072 3.072 0 00.001 6.144zm0 12.289a3.072 3.072 0 10-.001-6.144 3.072 3.072 0 000 6.144z" fill="#00C805"/><path opacity=".5" d="M39.926 262.711a3.072 3.072 0 10-.001-6.144 3.072 3.072 0 00.001 6.144z" fill="#00C805"/><path d="M39.926 275a3.072 3.072 0 10-.001-6.144 3.072 3.072 0 00.001 6.144zm12.274 0a3.072 3.072 0 10-.001-6.144A3.072 3.072 0 0052.2 275zm12.285 0a3.072 3.072 0 10-.001-6.144 3.072 3.072 0 00.001 6.144z" fill="#00C805"/><path opacity=".5" d="M76.77 275a3.072 3.072 0 10-.001-6.144A3.072 3.072 0 0076.77 275zm12.285 0a3.072 3.072 0 10-.001-6.144 3.072 3.072 0 00.001 6.144zm12.285-12.289a3.073 3.073 0 000-6.145 3.072 3.072 0 000 6.145z" fill="#00C805"/><path d="M101.34 275a3.073 3.073 0 000-6.145 3.072 3.072 0 000 6.145zm12.285-12.289a3.072 3.072 0 10-.002-6.144 3.072 3.072 0 00.002 6.144zm0 12.289a3.072 3.072 0 10-.002-6.144 3.072 3.072 0 00.002 6.144zm12.274-24.578a3.072 3.072 0 100-6.144 3.072 3.072 0 000 6.144zm0 12.289a3.072 3.072 0 100-6.144 3.072 3.072 0 000 6.144zm0 12.289a3.072 3.072 0 100-6.144 3.072 3.072 0 000 6.144zm12.285-36.867a3.072 3.072 0 100-6.144 3.072 3.072 0 000 6.144zm0 12.289a3.072 3.072 0 100-6.144 3.072 3.072 0 000 6.144zm0 12.289a3.072 3.072 0 100-6.144 3.072 3.072 0 000 6.144zm0 12.289a3.072 3.072 0 100-6.144 3.072 3.072 0 000 6.144zm12.285-36.867a3.072 3.072 0 100-6.144 3.072 3.072 0 000 6.144zm0 12.289a3.072 3.072 0 100-6.144 3.072 3.072 0 000 6.144zm0 12.289a3.072 3.072 0 100-6.144 3.072 3.072 0 000 6.144z" fill="#00C805"/><path opacity=".5" d="M150.469 275a3.072 3.072 0 100-6.144 3.072 3.072 0 000 6.144z" fill="#00C805"/><path d="M162.754 238.133a3.072 3.072 0 100-6.144 3.072 3.072 0 000 6.144zm0 12.289a3.072 3.072 0 100-6.144 3.072 3.072 0 000 6.144zm0 12.289a3.072 3.072 0 100-6.144 3.072 3.072 0 000 6.144zm0 12.289a3.072 3.072 0 100-6.144 3.072 3.072 0 000 6.144z" fill="#00C805"/><path opacity=".5" d="M175.039 238.133a3.072 3.072 0 10-.002-6.144 3.072 3.072 0 00.002 6.144zm0 12.289a3.072 3.072 0 10-.002-6.144 3.072 3.072 0 00.002 6.144z" fill="#00C805"/><path d="M175.039 262.711a3.072 3.072 0 10-.002-6.144 3.072 3.072 0 00.002 6.144zm0 12.289a3.072 3.072 0 10-.002-6.144 3.072 3.072 0 00.002 6.144zm12.285-36.867a3.073 3.073 0 000-6.145 3.072 3.072 0 000 6.145zm0 12.289a3.073 3.073 0 000-6.145 3.072 3.072 0 000 6.145zm0 12.289a3.073 3.073 0 000-6.145 3.072 3.072 0 000 6.145zm0 12.289a3.073 3.073 0 000-6.145 3.072 3.072 0 000 6.145z" fill="#00C805"/><path opacity=".5" d="M199.609 238.133a3.072 3.072 0 10-.002-6.144 3.072 3.072 0 00.002 6.144z" fill="#00C805"/><path d="M199.609 250.422a3.072 3.072 0 10-.002-6.144 3.072 3.072 0 00.002 6.144z" fill="#00C805"/><path opacity=".5" d="M199.609 262.711a3.072 3.072 0 10-.002-6.144 3.072 3.072 0 00.002 6.144z" fill="#00C805"/><path d="M199.609 275a3.072 3.072 0 10-.002-6.144 3.072 3.072 0 00.002 6.144z" fill="#00C805"/><path opacity=".5" d="M211.883 238.133a3.072 3.072 0 100-6.144 3.072 3.072 0 000 6.144z" fill="#00C805"/><path d="M211.883 250.422a3.072 3.072 0 100-6.144 3.072 3.072 0 000 6.144z" fill="#00C805"/><path opacity=".5" d="M211.883 262.711a3.072 3.072 0 100-6.144 3.072 3.072 0 000 6.144z" fill="#00C805"/><path d="M211.883 275a3.072 3.072 0 100-6.144 3.072 3.072 0 000 6.144zm12.285-36.867a3.072 3.072 0 100-6.144 3.072 3.072 0 000 6.144z" fill="#00C805"/><path opacity=".5" d="M150.469 225.855a3.072 3.072 0 100-6.145 3.072 3.072 0 000 6.145z" fill="#00C805"/><path d="M162.754 225.855a3.072 3.072 0 100-6.145 3.072 3.072 0 000 6.145zm12.285 0a3.072 3.072 0 10-.002-6.144 3.072 3.072 0 00.002 6.144z" fill="#00C805"/><path opacity=".5" d="M187.324 225.855a3.073 3.073 0 000-6.145 3.072 3.072 0 000 6.145zm12.285 0a3.072 3.072 0 10-.002-6.144 3.072 3.072 0 00.002 6.144zm12.274 0a3.072 3.072 0 100-6.145 3.072 3.072 0 000 6.145zm12.285 0a3.072 3.072 0 100-6.145 3.072 3.072 0 000 6.145z" fill="#00C805"/><path d="M224.168 250.422a3.072 3.072 0 100-6.144 3.072 3.072 0 000 6.144zm0 12.289a3.072 3.072 0 100-6.144 3.072 3.072 0 000 6.144z" fill="#00C805"/><path opacity=".5" d="M224.168 275a3.072 3.072 0 100-6.144 3.072 3.072 0 000 6.144z" fill="#00C805"/><path d="M236.453 238.133a3.072 3.072 0 100-6.144 3.072 3.072 0 000 6.144zm0 12.289a3.072 3.072 0 100-6.144 3.072 3.072 0 000 6.144z" fill="#00C805"/><path opacity=".5" d="M236.453 262.711a3.072 3.072 0 100-6.144 3.072 3.072 0 000 6.144z" fill="#00C805"/><path d="M236.453 275a3.072 3.072 0 100-6.144 3.072 3.072 0 000 6.144zm0-49.145a3.072 3.072 0 100-6.145 3.072 3.072 0 000 6.145z" fill="#00C805"/><path opacity=".5" d="M248.738 238.133a3.072 3.072 0 100-6.144 3.072 3.072 0 000 6.144z" fill="#00C805"/><path d="M248.738 250.422a3.072 3.072 0 100-6.144 3.072 3.072 0 000 6.144z" fill="#00C805"/><path opacity=".5" d="M248.738 262.711a3.072 3.072 0 100-6.144 3.072 3.072 0 000 6.144z" fill="#00C805"/><path d="M248.738 275a3.072 3.072 0 100-6.144 3.072 3.072 0 000 6.144zm0-61.434a3.072 3.072 0 100-6.145 3.072 3.072 0 000 6.145zm0 12.289a3.072 3.072 0 100-6.145 3.072 3.072 0 000 6.145z" fill="#00C805"/><path opacity=".5" d="M261.023 238.133a3.073 3.073 0 000-6.145 3.072 3.072 0 000 6.145z" fill="#00C805"/><path d="M261.023 250.422a3.073 3.073 0 000-6.145 3.072 3.072 0 000 6.145zm0 12.289a3.073 3.073 0 000-6.145 3.072 3.072 0 000 6.145zm0 12.289a3.073 3.073 0 000-6.145 3.072 3.072 0 000 6.145zm0-73.724a3.072 3.072 0 100-6.144 3.072 3.072 0 000 6.144zm0 12.29a3.073 3.073 0 000-6.145 3.072 3.072 0 000 6.145zm0 12.289a3.073 3.073 0 000-6.145 3.072 3.072 0 000 6.145z" fill="#00C805"/><path opacity=".5" d="M273.308 238.133a3.072 3.072 0 100-6.144 3.072 3.072 0 000 6.144z" fill="#00C805"/><path d="M273.308 250.422a3.072 3.072 0 100-6.144 3.072 3.072 0 000 6.144zm0 12.289a3.072 3.072 0 100-6.144 3.072 3.072 0 000 6.144zm0 12.289a3.072 3.072 0 100-6.144 3.072 3.072 0 000 6.144z" fill="#00C805"/><path opacity=".5" d="M273.308 213.566a3.072 3.072 0 100-6.145 3.072 3.072 0 000 6.145z" fill="#00C805"/><path d="M273.308 225.855a3.072 3.072 0 100-6.145 3.072 3.072 0 000 6.145z" fill="#00C805"/><path opacity=".5" d="M285.582 238.133a3.072 3.072 0 100-6.144 3.072 3.072 0 000 6.144z" fill="#00C805"/><path d="M285.582 250.422a3.072 3.072 0 100-6.144 3.072 3.072 0 000 6.144zm0 12.289a3.072 3.072 0 100-6.144 3.072 3.072 0 000 6.144zm0 12.289a3.072 3.072 0 100-6.144 3.072 3.072 0 000 6.144zm0-49.145a3.072 3.072 0 100-6.145 3.072 3.072 0 000 6.145z" fill="#00C805"/><path opacity=".5" d="M297.867 238.133a3.072 3.072 0 100-6.144 3.072 3.072 0 000 6.144zm0 12.289a3.072 3.072 0 100-6.144 3.072 3.072 0 000 6.144z" fill="#00C805"/><path d="M297.867 262.711a3.072 3.072 0 100-6.144 3.072 3.072 0 000 6.144zm0 12.289a3.072 3.072 0 100-6.144 3.072 3.072 0 000 6.144zm12.285-24.578a3.073 3.073 0 000-6.145 3.072 3.072 0 000 6.145zm0 12.289a3.073 3.073 0 000-6.145 3.072 3.072 0 000 6.145zm0 12.289a3.073 3.073 0 000-6.145 3.072 3.072 0 000 6.145zm12.285-36.867a3.072 3.072 0 100-6.144 3.072 3.072 0 000 6.144zm0 12.289a3.072 3.072 0 100-6.144 3.072 3.072 0 000 6.144zm0 12.289a3.072 3.072 0 100-6.144 3.072 3.072 0 000 6.144zm0 12.289a3.072 3.072 0 100-6.144 3.072 3.072 0 000 6.144zm12.285-36.867a3.072 3.072 0 100-6.144 3.072 3.072 0 000 6.144zm0 12.289a3.072 3.072 0 100-6.144 3.072 3.072 0 000 6.144zm0 12.289a3.072 3.072 0 100-6.144 3.072 3.072 0 000 6.144zm0 12.289a3.072 3.072 0 100-6.144 3.072 3.072 0 000 6.144z" fill="#00C805"/><path opacity=".5" d="M347.007 213.566a3.073 3.073 0 000-6.145 3.072 3.072 0 000 6.145z" fill="#00C805"/><path d="M334.722 225.855a3.072 3.072 0 100-6.145 3.072 3.072 0 000 6.145zm12.285 12.278a3.073 3.073 0 000-6.145 3.072 3.072 0 000 6.145zm0 12.289a3.073 3.073 0 000-6.145 3.072 3.072 0 000 6.145zm0 12.289a3.073 3.073 0 000-6.145 3.072 3.072 0 000 6.145zm0 12.289a3.073 3.073 0 000-6.145 3.072 3.072 0 000 6.145zm0-49.145a3.073 3.073 0 000-6.145 3.072 3.072 0 000 6.145zm12.285 12.278a3.072 3.072 0 10-.002-6.144 3.072 3.072 0 00.002 6.144zm0 12.289a3.072 3.072 0 10-.002-6.144 3.072 3.072 0 00.002 6.144zm0 12.289a3.072 3.072 0 10-.002-6.144 3.072 3.072 0 00.002 6.144zm0 12.289a3.072 3.072 0 10-.002-6.144 3.072 3.072 0 00.002 6.144zm0-61.434a3.072 3.072 0 10-.002-6.144 3.072 3.072 0 00.002 6.144z" fill="#00C805"/><path opacity=".5" d="M359.292 201.276a3.071 3.071 0 100-6.143 3.071 3.071 0 000 6.143z" fill="#00C805"/><path d="M359.292 225.855a3.072 3.072 0 10-.002-6.144 3.072 3.072 0 00.002 6.144zm12.274 12.278a3.072 3.072 0 100-6.144 3.072 3.072 0 000 6.144z" fill="#00C805"/><path opacity=".5" d="M371.566 250.422a3.072 3.072 0 100-6.144 3.072 3.072 0 000 6.144z" fill="#00C805"/><path d="M371.566 262.711a3.072 3.072 0 100-6.144 3.072 3.072 0 000 6.144zm0 12.289a3.072 3.072 0 100-6.144 3.072 3.072 0 000 6.144zm0-61.434a3.072 3.072 0 100-6.145 3.072 3.072 0 000 6.145zm0 12.289a3.072 3.072 0 100-6.145 3.072 3.072 0 000 6.145zm12.285 12.278a3.072 3.072 0 100-6.144 3.072 3.072 0 000 6.144zm0 12.289a3.072 3.072 0 100-6.144 3.072 3.072 0 000 6.144zm0 12.289a3.072 3.072 0 100-6.144 3.072 3.072 0 000 6.144zm0 12.289a3.072 3.072 0 100-6.144 3.072 3.072 0 000 6.144zm0-61.434a3.072 3.072 0 100-6.145 3.072 3.072 0 000 6.145zm-12.285-12.29a3.072 3.072 0 10.001-6.143 3.072 3.072 0 00-.001 6.143zm12.285 0a3.072 3.072 0 10.001-6.143 3.072 3.072 0 00-.001 6.143zm12.285 0a3.072 3.072 0 10.001-6.143 3.072 3.072 0 00-.001 6.143zm-12.285 24.579a3.072 3.072 0 100-6.145 3.072 3.072 0 000 6.145zm12.285 12.278a3.072 3.072 0 100-6.144 3.072 3.072 0 000 6.144zm0 12.289a3.072 3.072 0 100-6.144 3.072 3.072 0 000 6.144zm0 12.289a3.072 3.072 0 100-6.144 3.072 3.072 0 000 6.144zm0 12.289a3.072 3.072 0 100-6.144 3.072 3.072 0 000 6.144zm0-61.434a3.072 3.072 0 100-6.145 3.072 3.072 0 000 6.145zm0 12.289a3.072 3.072 0 100-6.145 3.072 3.072 0 000 6.145zm12.285 12.278a3.072 3.072 0 100-6.144 3.072 3.072 0 000 6.144zm0 12.289a3.072 3.072 0 100-6.144 3.072 3.072 0 000 6.144zm0 12.289a3.072 3.072 0 100-6.144 3.072 3.072 0 000 6.144zm0 12.289a3.072 3.072 0 100-6.144 3.072 3.072 0 000 6.144zm0-49.145a3.072 3.072 0 100-6.145 3.072 3.072 0 000 6.145zm12.556 12.278a3.072 3.072 0 10-.002-6.144 3.072 3.072 0 00.002 6.144zm0 12.289a3.072 3.072 0 10-.002-6.144 3.072 3.072 0 00.002 6.144zm0 12.289a3.072 3.072 0 10-.002-6.144 3.072 3.072 0 00.002 6.144zm0 12.289a3.072 3.072 0 10-.002-6.144 3.072 3.072 0 00.002 6.144zm0-49.145a3.072 3.072 0 10-.002-6.144 3.072 3.072 0 00.002 6.144zm-12.556-12.311a3.072 3.072 0 100-6.144 3.072 3.072 0 000 6.144z" fill="#00C805"/><path opacity=".5" d="M408.421 201.276a3.072 3.072 0 10.001-6.143 3.072 3.072 0 00-.001 6.143z" fill="#00C805"/><path d="M420.977 213.544a3.072 3.072 0 10-.002-6.144 3.072 3.072 0 00.002 6.144z" fill="#00C805"/><path opacity=".5" d="M420.977 201.276a3.071 3.071 0 100-6.143 3.071 3.071 0 000 6.143zm12.285 36.857a3.072 3.072 0 10-.002-6.144 3.072 3.072 0 00.002 6.144zm0 12.289a3.072 3.072 0 10-.002-6.144 3.072 3.072 0 00.002 6.144zm0 12.289a3.072 3.072 0 10-.002-6.144 3.072 3.072 0 00.002 6.144zm0 12.289a3.072 3.072 0 10-.002-6.144 3.072 3.072 0 00.002 6.144z" fill="#00C805"/><path d="M433.262 213.566a3.072 3.072 0 10-.002-6.144 3.072 3.072 0 00.002 6.144zm0 12.289a3.072 3.072 0 10-.002-6.144 3.072 3.072 0 00.002 6.144zm0-36.868a3.071 3.071 0 100-6.143 3.071 3.071 0 000 6.143zm0 12.289a3.071 3.071 0 100-6.143 3.071 3.071 0 000 6.143zm12.285 36.857a3.072 3.072 0 10-.002-6.144 3.072 3.072 0 00.002 6.144zm0 12.289a3.072 3.072 0 10-.002-6.144 3.072 3.072 0 00.002 6.144zm0 12.289a3.072 3.072 0 10-.002-6.144 3.072 3.072 0 00.002 6.144zm0 12.289a3.072 3.072 0 10-.002-6.144 3.072 3.072 0 00.002 6.144zm0-73.724a3.071 3.071 0 100-6.143 3.071 3.071 0 000 6.143zm0 12.29a3.072 3.072 0 10-.002-6.144 3.072 3.072 0 00.002 6.144zm0 12.289a3.072 3.072 0 10-.002-6.144 3.072 3.072 0 00.002 6.144zm12.274 12.278a3.072 3.072 0 10-.002-6.144 3.072 3.072 0 00.002 6.144zm0 12.289a3.072 3.072 0 10-.002-6.144 3.072 3.072 0 00.002 6.144zm0 12.289a3.072 3.072 0 10-.002-6.144 3.072 3.072 0 00.002 6.144zm0 12.289a3.072 3.072 0 10-.002-6.144 3.072 3.072 0 00.002 6.144zm0-73.724a3.071 3.071 0 100-6.143 3.071 3.071 0 000 6.143zm-12.274-12.289a3.071 3.071 0 100-6.143 3.071 3.071 0 000 6.143zm12.274 0a3.071 3.071 0 100-6.143 3.071 3.071 0 000 6.143zm0 24.579a3.072 3.072 0 10-.002-6.144 3.072 3.072 0 00.002 6.144zm0 12.289a3.072 3.072 0 10-.002-6.144 3.072 3.072 0 00.002 6.144zm12.285 12.278a3.072 3.072 0 10-.002-6.144 3.072 3.072 0 00.002 6.144zm0 12.289a3.072 3.072 0 10-.002-6.144 3.072 3.072 0 00.002 6.144zm0 12.289a3.072 3.072 0 10-.002-6.144 3.072 3.072 0 00.002 6.144zm0 12.289a3.072 3.072 0 10-.002-6.144 3.072 3.072 0 00.002 6.144zm0-86.013a3.071 3.071 0 100-6.143 3.071 3.071 0 000 6.143zm0 12.289a3.071 3.071 0 100-6.143 3.071 3.071 0 000 6.143zm0 12.29a3.072 3.072 0 10-.002-6.144 3.072 3.072 0 00.002 6.144zm0 12.289a3.072 3.072 0 10-.002-6.144 3.072 3.072 0 00.002 6.144zm12.285 12.278a3.072 3.072 0 10-.002-6.144 3.072 3.072 0 00.002 6.144zm0 12.289a3.072 3.072 0 10-.002-6.144 3.072 3.072 0 00.002 6.144zm0 12.289a3.072 3.072 0 10-.002-6.144 3.072 3.072 0 00.002 6.144zm0 12.289a3.072 3.072 0 10-.002-6.144 3.072 3.072 0 00.002 6.144zm0-86.013a3.071 3.071 0 100-6.143 3.071 3.071 0 000 6.143zm0 12.289a3.071 3.071 0 100-6.143 3.071 3.071 0 000 6.143zm0 12.29a3.072 3.072 0 10-.002-6.144 3.072 3.072 0 00.002 6.144zm0 12.289a3.072 3.072 0 10-.002-6.144 3.072 3.072 0 00.002 6.144zm12.285 12.278a3.072 3.072 0 10-.002-6.144 3.072 3.072 0 00.002 6.144zm0 12.289a3.072 3.072 0 10-.002-6.144 3.072 3.072 0 00.002 6.144zm0 12.289a3.072 3.072 0 10-.002-6.144 3.072 3.072 0 00.002 6.144zm0 12.289a3.072 3.072 0 10-.002-6.144 3.072 3.072 0 00.002 6.144zm0-98.302a3.071 3.071 0 100-6.143 3.071 3.071 0 000 6.143zm0 12.289a3.071 3.071 0 100-6.143 3.071 3.071 0 000 6.143z" fill="#00C805"/><path opacity=".5" d="M494.676 201.276a3.071 3.071 0 100-6.143 3.071 3.071 0 000 6.143z" fill="#00C805"/><path d="M494.676 213.566a3.072 3.072 0 10-.002-6.144 3.072 3.072 0 00.002 6.144zm0 12.289a3.072 3.072 0 10-.002-6.144 3.072 3.072 0 00.002 6.144zm12.285 12.278a3.072 3.072 0 10-.002-6.144 3.072 3.072 0 00.002 6.144zm0 12.289a3.072 3.072 0 10-.002-6.144 3.072 3.072 0 00.002 6.144zm0 12.289a3.072 3.072 0 10-.002-6.144 3.072 3.072 0 00.002 6.144z" fill="#00C805"/><path opacity=".5" d="M506.961 275a3.072 3.072 0 10-.002-6.144 3.072 3.072 0 00.002 6.144z" fill="#00C805"/><path d="M506.961 176.698a3.071 3.071 0 100-6.143 3.071 3.071 0 000 6.143zm0 12.289a3.071 3.071 0 100-6.143 3.071 3.071 0 000 6.143zm0 12.289a3.071 3.071 0 100-6.143 3.071 3.071 0 000 6.143zm0 12.29a3.072 3.072 0 10-.002-6.144 3.072 3.072 0 00.002 6.144zm0 12.289a3.072 3.072 0 10-.002-6.144 3.072 3.072 0 00.002 6.144zm12.285 12.278a3.072 3.072 0 10-.002-6.144 3.072 3.072 0 00.002 6.144zm0 12.289a3.072 3.072 0 10-.002-6.144 3.072 3.072 0 00.002 6.144zm0 12.289a3.072 3.072 0 10-.002-6.144 3.072 3.072 0 00.002 6.144zm0 12.289a3.072 3.072 0 10-.002-6.144 3.072 3.072 0 00.002 6.144zm0-98.302a3.071 3.071 0 100-6.143 3.071 3.071 0 000 6.143zm0 12.289a3.071 3.071 0 100-6.143 3.071 3.071 0 000 6.143zm0 12.289a3.071 3.071 0 100-6.143 3.071 3.071 0 000 6.143zm0 12.29a3.072 3.072 0 10-.002-6.144 3.072 3.072 0 00.002 6.144zm0 12.289a3.072 3.072 0 10-.002-6.144 3.072 3.072 0 00.002 6.144z" fill="#00C805"/><path opacity=".5" d="M531.531 238.133a3.072 3.072 0 10-.002-6.144 3.072 3.072 0 00.002 6.144z" fill="#00C805"/><path d="M531.531 250.422a3.072 3.072 0 10-.002-6.144 3.072 3.072 0 00.002 6.144zm0 12.289a3.072 3.072 0 10-.002-6.144 3.072 3.072 0 00.002 6.144zm0 12.289a3.072 3.072 0 10-.002-6.144 3.072 3.072 0 00.002 6.144zm0-98.302a3.071 3.071 0 100-6.143 3.071 3.071 0 000 6.143zm0 12.289a3.071 3.071 0 100-6.143 3.071 3.071 0 000 6.143zm0 12.289a3.071 3.071 0 100-6.143 3.071 3.071 0 000 6.143zm0 12.29a3.072 3.072 0 10-.002-6.144 3.072 3.072 0 00.002 6.144zm0 12.289a3.072 3.072 0 10-.002-6.144 3.072 3.072 0 00.002 6.144z" fill="#00C805"/><path opacity=".5" d="M543.805 238.133a3.072 3.072 0 10-.002-6.144 3.072 3.072 0 00.002 6.144z" fill="#00C805"/><path d="M543.805 250.422a3.072 3.072 0 10-.002-6.144 3.072 3.072 0 00.002 6.144zm0 12.289a3.072 3.072 0 10-.002-6.144 3.072 3.072 0 00.002 6.144zm0 12.289a3.072 3.072 0 10-.002-6.144 3.072 3.072 0 00.002 6.144z" fill="#00C805"/><path opacity=".5" d="M543.805 176.698a3.071 3.071 0 100-6.143 3.071 3.071 0 000 6.143zm0 12.289a3.071 3.071 0 100-6.143 3.071 3.071 0 000 6.143z" fill="#00C805"/><path d="M543.805 201.276a3.071 3.071 0 100-6.143 3.071 3.071 0 000 6.143zm0 12.29a3.072 3.072 0 10-.002-6.144 3.072 3.072 0 00.002 6.144zm0 12.289a3.072 3.072 0 10-.002-6.144 3.072 3.072 0 00.002 6.144z" fill="#00C805"/><path opacity=".5" d="M556.09 238.133a3.072 3.072 0 10-.002-6.144 3.072 3.072 0 00.002 6.144z" fill="#00C805"/><path d="M556.09 250.422a3.072 3.072 0 10-.002-6.144 3.072 3.072 0 00.002 6.144zm0 12.289a3.072 3.072 0 10-.002-6.144 3.072 3.072 0 00.002 6.144zm0 12.289a3.072 3.072 0 10-.002-6.144 3.072 3.072 0 00.002 6.144zm0-98.302a3.071 3.071 0 100-6.143 3.071 3.071 0 000 6.143zm0 12.289a3.071 3.071 0 100-6.143 3.071 3.071 0 000 6.143zm0 12.289a3.071 3.071 0 100-6.143 3.071 3.071 0 000 6.143zm0 12.29a3.072 3.072 0 10-.002-6.144 3.072 3.072 0 00.002 6.144zm0 12.289a3.072 3.072 0 10-.002-6.144 3.072 3.072 0 00.002 6.144z" fill="#00C805"/><path opacity=".5" d="M568.375 238.133a3.072 3.072 0 10-.002-6.144 3.072 3.072 0 00.002 6.144z" fill="#00C805"/><path d="M568.375 250.422a3.072 3.072 0 10-.002-6.144 3.072 3.072 0 00.002 6.144zm0 12.289a3.072 3.072 0 10-.002-6.144 3.072 3.072 0 00.002 6.144zm0 12.289a3.072 3.072 0 10-.002-6.144 3.072 3.072 0 00.002 6.144zm0-98.302a3.071 3.071 0 100-6.143 3.071 3.071 0 000 6.143zm0 12.289a3.071 3.071 0 100-6.143 3.071 3.071 0 000 6.143zm0 12.289a3.071 3.071 0 100-6.143 3.071 3.071 0 000 6.143zm0 12.29a3.072 3.072 0 10-.002-6.144 3.072 3.072 0 00.002 6.144zm0 12.289a3.072 3.072 0 10-.002-6.144 3.072 3.072 0 00.002 6.144z" fill="#00C805"/><path opacity=".5" d="M580.66 238.133a3.072 3.072 0 10-.002-6.144 3.072 3.072 0 00.002 6.144z" fill="#00C805"/><path d="M580.66 250.422a3.072 3.072 0 10-.002-6.144 3.072 3.072 0 00.002 6.144zm0 12.289a3.072 3.072 0 10-.002-6.144 3.072 3.072 0 00.002 6.144zm0 12.289a3.072 3.072 0 10-.002-6.144 3.072 3.072 0 00.002 6.144zm0-98.302a3.071 3.071 0 100-6.143 3.071 3.071 0 000 6.143zm0 12.289a3.071 3.071 0 100-6.143 3.071 3.071 0 000 6.143zm0 12.289a3.071 3.071 0 100-6.143 3.071 3.071 0 000 6.143zm0 12.29a3.072 3.072 0 10-.002-6.144 3.072 3.072 0 00.002 6.144zm0 12.289a3.072 3.072 0 10-.002-6.144 3.072 3.072 0 00.002 6.144z" fill="#00C805"/><path opacity=".5" d="M592.945 238.133a3.072 3.072 0 10-.002-6.144 3.072 3.072 0 00.002 6.144zm0 12.289a3.072 3.072 0 10-.002-6.144 3.072 3.072 0 00.002 6.144zm0 12.289a3.072 3.072 0 10-.002-6.144 3.072 3.072 0 00.002 6.144zm0 12.289a3.072 3.072 0 10-.002-6.144 3.072 3.072 0 00.002 6.144zm0-98.302a3.071 3.071 0 100-6.143 3.071 3.071 0 000 6.143zm0 12.289a3.071 3.071 0 100-6.143 3.071 3.071 0 000 6.143zm0 12.289a3.071 3.071 0 100-6.143 3.071 3.071 0 000 6.143zm0 12.29a3.072 3.072 0 10-.002-6.144 3.072 3.072 0 00.002 6.144zm0 12.289a3.072 3.072 0 10-.002-6.144 3.072 3.072 0 00.002 6.144zm12.285 12.278a3.072 3.072 0 10-.002-6.144 3.072 3.072 0 00.002 6.144z" fill="#00C805"/><path d="M605.23 250.422a3.072 3.072 0 10-.002-6.144 3.072 3.072 0 00.002 6.144zm0 12.289a3.072 3.072 0 10-.002-6.144 3.072 3.072 0 00.002 6.144zm0 12.289a3.072 3.072 0 10-.002-6.144 3.072 3.072 0 00.002 6.144zm0-98.302a3.071 3.071 0 100-6.143 3.071 3.071 0 000 6.143zm0 12.289a3.071 3.071 0 100-6.143 3.071 3.071 0 000 6.143zm0 12.289a3.071 3.071 0 100-6.143 3.071 3.071 0 000 6.143zm0 12.29a3.072 3.072 0 10-.002-6.144 3.072 3.072 0 00.002 6.144zm0 12.289a3.072 3.072 0 10-.002-6.144 3.072 3.072 0 00.002 6.144z" fill="#00C805"/><path opacity=".5" d="M617.515 238.133a3.072 3.072 0 10-.002-6.144 3.072 3.072 0 00.002 6.144z" fill="#00C805"/><path d="M617.515 250.422a3.072 3.072 0 10-.002-6.144 3.072 3.072 0 00.002 6.144zm0 12.289a3.072 3.072 0 10-.002-6.144 3.072 3.072 0 00.002 6.144zm0 12.289a3.072 3.072 0 10-.002-6.144 3.072 3.072 0 00.002 6.144zm0-98.302a3.071 3.071 0 100-6.143 3.071 3.071 0 000 6.143zm0 12.289a3.071 3.071 0 100-6.143 3.071 3.071 0 000 6.143zm0 12.289a3.071 3.071 0 100-6.143 3.071 3.071 0 000 6.143zm0 12.29a3.072 3.072 0 10-.002-6.144 3.072 3.072 0 00.002 6.144zm0 12.289a3.072 3.072 0 10-.002-6.144 3.072 3.072 0 00.002 6.144z" fill="#00C805"/><path opacity=".5" d="M629.789 238.133a3.072 3.072 0 10-.002-6.144 3.072 3.072 0 00.002 6.144z" fill="#00C805"/><path d="M629.789 250.422a3.072 3.072 0 10-.002-6.144 3.072 3.072 0 00.002 6.144zm0 12.289a3.072 3.072 0 10-.002-6.144 3.072 3.072 0 00.002 6.144zm0 12.289a3.072 3.072 0 10-.002-6.144 3.072 3.072 0 00.002 6.144z" fill="#00C805"/><path opacity=".5" d="M629.789 176.698a3.071 3.071 0 100-6.143 3.071 3.071 0 000 6.143zm0 12.289a3.071 3.071 0 100-6.143 3.071 3.071 0 000 6.143zm0 12.289a3.071 3.071 0 100-6.143 3.071 3.071 0 000 6.143z" fill="#00C805"/><path d="M629.789 213.566a3.072 3.072 0 10-.002-6.144 3.072 3.072 0 00.002 6.144zm0 12.289a3.072 3.072 0 10-.002-6.144 3.072 3.072 0 00.002 6.144z" fill="#00C805"/><path opacity=".5" d="M642.074 238.133a3.072 3.072 0 10-.002-6.144 3.072 3.072 0 00.002 6.144z" fill="#00C805"/><path d="M642.074 250.422a3.072 3.072 0 10-.002-6.144 3.072 3.072 0 00.002 6.144zm0 12.289a3.072 3.072 0 10-.002-6.144 3.072 3.072 0 00.002 6.144zm0 12.289a3.072 3.072 0 10-.002-6.144 3.072 3.072 0 00.002 6.144zm0-98.302a3.071 3.071 0 100-6.143 3.071 3.071 0 000 6.143zm0 12.289a3.071 3.071 0 100-6.143 3.071 3.071 0 000 6.143zm0 12.289a3.071 3.071 0 100-6.143 3.071 3.071 0 000 6.143zm0 12.29a3.072 3.072 0 10-.002-6.144 3.072 3.072 0 00.002 6.144zm0 12.289a3.072 3.072 0 10-.002-6.144 3.072 3.072 0 00.002 6.144z" fill="#00C805"/><path opacity=".5" d="M654.359 238.133a3.072 3.072 0 10-.002-6.144 3.072 3.072 0 00.002 6.144z" fill="#00C805"/><path d="M654.359 250.422a3.072 3.072 0 10-.002-6.144 3.072 3.072 0 00.002 6.144zm0 12.289a3.072 3.072 0 10-.002-6.144 3.072 3.072 0 00.002 6.144zm0 12.289a3.072 3.072 0 10-.002-6.144 3.072 3.072 0 00.002 6.144zm0-98.302a3.071 3.071 0 100-6.143 3.071 3.071 0 000 6.143zm0 12.289a3.071 3.071 0 100-6.143 3.071 3.071 0 000 6.143zm0 12.289a3.071 3.071 0 100-6.143 3.071 3.071 0 000 6.143zm0 12.29a3.072 3.072 0 10-.002-6.144 3.072 3.072 0 00.002 6.144zm0 12.289a3.072 3.072 0 10-.002-6.144 3.072 3.072 0 00.002 6.144z" fill="#00C805"/><path opacity=".5" d="M666.644 238.133a3.072 3.072 0 10-.002-6.144 3.072 3.072 0 00.002 6.144z" fill="#00C805"/><path d="M666.644 250.422a3.072 3.072 0 10-.002-6.144 3.072 3.072 0 00.002 6.144zm0 12.289a3.072 3.072 0 10-.002-6.144 3.072 3.072 0 00.002 6.144zm0 12.289a3.072 3.072 0 10-.002-6.144 3.072 3.072 0 00.002 6.144zm0-98.302a3.071 3.071 0 100-6.143 3.071 3.071 0 000 6.143zm0 12.289a3.071 3.071 0 100-6.143 3.071 3.071 0 000 6.143zm0 12.289a3.071 3.071 0 100-6.143 3.071 3.071 0 000 6.143zm0 12.29a3.072 3.072 0 10-.002-6.144 3.072 3.072 0 00.002 6.144zm0 12.289a3.072 3.072 0 10-.002-6.144 3.072 3.072 0 00.002 6.144z" fill="#00C805"/><path opacity=".5" d="M678.929 238.133a3.072 3.072 0 10-.002-6.144 3.072 3.072 0 00.002 6.144z" fill="#00C805"/><path d="M678.929 250.422a3.072 3.072 0 10-.002-6.144 3.072 3.072 0 00.002 6.144z" fill="#00C805"/><path opacity=".5" d="M678.929 262.711a3.072 3.072 0 10-.002-6.144 3.072 3.072 0 00.002 6.144z" fill="#00C805"/><path d="M678.929 275a3.072 3.072 0 10-.002-6.144 3.072 3.072 0 00.002 6.144zm0-98.302a3.071 3.071 0 100-6.143 3.071 3.071 0 000 6.143z" fill="#00C805"/><path opacity=".5" d="M678.929 188.987a3.071 3.071 0 100-6.143 3.071 3.071 0 000 6.143z" fill="#00C805"/><path d="M678.929 201.276a3.071 3.071 0 100-6.143 3.071 3.071 0 000 6.143zm0 12.29a3.072 3.072 0 10-.002-6.144 3.072 3.072 0 00.002 6.144zm0 12.289a3.072 3.072 0 10-.002-6.144 3.072 3.072 0 00.002 6.144zm-196.538-49.157a3.071 3.071 0 100-6.143 3.071 3.071 0 000 6.143zm0-11.823a3.072 3.072 0 10-.002-6.144 3.072 3.072 0 00.002 6.144z" fill="#00C805"/><path opacity=".5" d="M482.391 152.153a3.072 3.072 0 10-.002-6.144 3.072 3.072 0 00.002 6.144zm0-11.824a3.072 3.072 0 10-.002-6.144 3.072 3.072 0 00.002 6.144zm12.285 12.256a3.071 3.071 0 100-6.143 3.071 3.071 0 000 6.143z" fill="#00C805"/><path d="M494.676 164.875a3.072 3.072 0 10-.002-6.144 3.072 3.072 0 00.002 6.144zm12.285-24.579a3.071 3.071 0 100-6.143 3.071 3.071 0 000 6.143zm-12.285 0a3.071 3.071 0 100-6.143 3.071 3.071 0 000 6.143z" fill="#00C805"/><path opacity=".5" d="M506.961 152.585a3.071 3.071 0 100-6.143 3.071 3.071 0 000 6.143z" fill="#00C805"/><path d="M506.961 164.875a3.072 3.072 0 10-.002-6.144 3.072 3.072 0 00.002 6.144zm12.285-24.579a3.071 3.071 0 100-6.143 3.071 3.071 0 000 6.143zm0 12.289a3.071 3.071 0 100-6.143 3.071 3.071 0 000 6.143zm0 12.29a3.072 3.072 0 10-.002-6.144 3.072 3.072 0 00.002 6.144zm12.285-24.579a3.071 3.071 0 100-6.143 3.071 3.071 0 000 6.143zm0 12.289a3.071 3.071 0 100-6.143 3.071 3.071 0 000 6.143zm0 12.29a3.072 3.072 0 10-.002-6.144 3.072 3.072 0 00.002 6.144z" fill="#00C805"/><path opacity=".5" d="M543.805 140.296a3.071 3.071 0 100-6.143 3.071 3.071 0 000 6.143zm0 12.289a3.071 3.071 0 100-6.143 3.071 3.071 0 000 6.143zm0 12.29a3.072 3.072 0 10-.002-6.144 3.072 3.072 0 00.002 6.144z" fill="#00C805"/><path d="M556.09 128.018a3.071 3.071 0 100-6.143 3.071 3.071 0 000 6.143zm0 12.278a3.071 3.071 0 100-6.143 3.071 3.071 0 000 6.143zm0 12.289a3.071 3.071 0 100-6.143 3.071 3.071 0 000 6.143zm0 12.29a3.072 3.072 0 10-.002-6.144 3.072 3.072 0 00.002 6.144zm12.285-36.857a3.071 3.071 0 100-6.143 3.071 3.071 0 000 6.143zm0 12.278a3.071 3.071 0 100-6.143 3.071 3.071 0 000 6.143zm0 12.289a3.071 3.071 0 100-6.143 3.071 3.071 0 000 6.143zm0 12.29a3.072 3.072 0 10-.002-6.144 3.072 3.072 0 00.002 6.144z" fill="#00C805"/><path opacity=".5" d="M568.375 115.729a3.071 3.071 0 100-6.143 3.071 3.071 0 000 6.143zm-12.285 0a3.071 3.071 0 100-6.143 3.071 3.071 0 000 6.143z" fill="#00C805"/><path d="M580.66 128.018a3.071 3.071 0 100-6.143 3.071 3.071 0 000 6.143zm0 12.278a3.071 3.071 0 100-6.143 3.071 3.071 0 000 6.143zm0 12.289a3.071 3.071 0 100-6.143 3.071 3.071 0 000 6.143zm0 12.29a3.072 3.072 0 10-.002-6.144 3.072 3.072 0 00.002 6.144zm-.022-49.146a3.071 3.071 0 100-6.143 3.071 3.071 0 000 6.143zm-49.107 12.289a3.071 3.071 0 100-6.143 3.071 3.071 0 000 6.143zm0-12.289a3.071 3.071 0 100-6.143 3.071 3.071 0 000 6.143zm12.274 12.289a3.071 3.071 0 100-6.143 3.071 3.071 0 000 6.143zm-.011-12.289a3.071 3.071 0 100-6.143 3.071 3.071 0 000 6.143zm49.151 12.289a3.071 3.071 0 100-6.143 3.071 3.071 0 000 6.143zm0 12.278a3.071 3.071 0 100-6.143 3.071 3.071 0 000 6.143zm0 12.289a3.071 3.071 0 100-6.143 3.071 3.071 0 000 6.143zm0 12.29a3.072 3.072 0 10-.002-6.144 3.072 3.072 0 00.002 6.144zm0-61.435a3.072 3.072 0 10-.001-6.146 3.072 3.072 0 00.001 6.146zm-12.307 0a3.072 3.072 0 10-.001-6.146 3.072 3.072 0 00.001 6.146z" fill="#00C805"/><path opacity=".5" d="M580.638 91.151a3.072 3.072 0 10-.001-6.143 3.072 3.072 0 00.001 6.143z" fill="#00C805"/><path d="M592.945 115.729a3.071 3.071 0 100-6.143 3.071 3.071 0 000 6.143z" fill="#00C805"/><path opacity=".5" d="M605.23 128.018a3.071 3.071 0 100-6.143 3.071 3.071 0 000 6.143z" fill="#00C805"/><path d="M605.23 140.296a3.071 3.071 0 100-6.143 3.071 3.071 0 000 6.143zm0 12.289a3.071 3.071 0 100-6.143 3.071 3.071 0 000 6.143z" fill="#00C805"/><path opacity=".5" d="M605.23 164.875a3.072 3.072 0 10-.002-6.144 3.072 3.072 0 00.002 6.144z" fill="#00C805"/><path d="M605.23 91.151a3.072 3.072 0 10-.001-6.143 3.072 3.072 0 00.001 6.143zm0 12.289a3.072 3.072 0 10-.001-6.146 3.072 3.072 0 00.001 6.146zm0 12.289a3.071 3.071 0 100-6.143 3.071 3.071 0 000 6.143z" fill="#00C805"/><path opacity=".5" d="M617.515 128.018a3.071 3.071 0 100-6.143 3.071 3.071 0 000 6.143z" fill="#00C805"/><path d="M617.515 140.296a3.071 3.071 0 100-6.143 3.071 3.071 0 000 6.143zm0 12.289a3.071 3.071 0 100-6.143 3.071 3.071 0 000 6.143z" fill="#00C805"/><path opacity=".5" d="M617.515 164.875a3.072 3.072 0 10-.002-6.144 3.072 3.072 0 00.002 6.144z" fill="#00C805"/><path d="M617.515 91.151a3.072 3.072 0 10-.001-6.143 3.072 3.072 0 00.001 6.143zm0 12.289a3.072 3.072 0 10-.001-6.146 3.072 3.072 0 00.001 6.146zm0 12.289a3.071 3.071 0 100-6.143 3.071 3.071 0 000 6.143z" fill="#00C805"/><path opacity=".5" d="M629.789 128.018a3.071 3.071 0 100-6.143 3.071 3.071 0 000 6.143zm0 12.278a3.071 3.071 0 100-6.143 3.071 3.071 0 000 6.143zm0 12.289a3.071 3.071 0 100-6.143 3.071 3.071 0 000 6.143zm0 12.29a3.072 3.072 0 10-.002-6.144 3.072 3.072 0 00.002 6.144zm0-73.724a3.072 3.072 0 10-.001-6.143 3.072 3.072 0 00.001 6.143zm0 12.289a3.072 3.072 0 10-.001-6.146 3.072 3.072 0 00.001 6.146zm0 12.289a3.071 3.071 0 100-6.143 3.071 3.071 0 000 6.143zm12.285 12.289a3.071 3.071 0 100-6.143 3.071 3.071 0 000 6.143z" fill="#00C805"/><path d="M642.074 140.296a3.071 3.071 0 100-6.143 3.071 3.071 0 000 6.143zm0 12.289a3.071 3.071 0 100-6.143 3.071 3.071 0 000 6.143z" fill="#00C805"/><path opacity=".5" d="M642.074 164.875a3.072 3.072 0 10-.002-6.144 3.072 3.072 0 00.002 6.144z" fill="#00C805"/><path d="M642.074 91.151a3.072 3.072 0 10-.001-6.143 3.072 3.072 0 00.001 6.143zm0 12.289a3.072 3.072 0 10-.001-6.146 3.072 3.072 0 00.001 6.146zm0 12.289a3.071 3.071 0 100-6.143 3.071 3.071 0 000 6.143z" fill="#00C805"/><path opacity=".5" d="M654.359 128.018a3.071 3.071 0 100-6.143 3.071 3.071 0 000 6.143z" fill="#00C805"/><path d="M654.359 140.296a3.071 3.071 0 100-6.143 3.071 3.071 0 000 6.143zm0 12.289a3.071 3.071 0 100-6.143 3.071 3.071 0 000 6.143z" fill="#00C805"/><path opacity=".5" d="M654.359 164.875a3.072 3.072 0 10-.002-6.144 3.072 3.072 0 00.002 6.144z" fill="#00C805"/><path d="M654.359 91.151a3.072 3.072 0 10-.001-6.143 3.072 3.072 0 00.001 6.143zm0 12.289a3.072 3.072 0 10-.001-6.146 3.072 3.072 0 00.001 6.146zm0 12.289a3.071 3.071 0 100-6.143 3.071 3.071 0 000 6.143z" fill="#00C805"/><path opacity=".5" d="M666.644 128.018a3.071 3.071 0 100-6.143 3.071 3.071 0 000 6.143z" fill="#00C805"/><path d="M666.644 140.296a3.071 3.071 0 100-6.143 3.071 3.071 0 000 6.143zm0 12.289a3.071 3.071 0 100-6.143 3.071 3.071 0 000 6.143z" fill="#00C805"/><path opacity=".5" d="M666.644 164.875a3.072 3.072 0 10-.002-6.144 3.072 3.072 0 00.002 6.144z" fill="#00C805"/><path d="M666.644 91.151a3.072 3.072 0 10-.001-6.143 3.072 3.072 0 00.001 6.143z" fill="#00C805"/><path opacity=".5" d="M666.644 103.44a3.072 3.072 0 10-.001-6.146 3.072 3.072 0 00.001 6.146z" fill="#00C805"/><path d="M666.644 115.729a3.071 3.071 0 100-6.143 3.071 3.071 0 000 6.143z" fill="#00C805"/><path opacity=".5" d="M678.929 128.018a3.071 3.071 0 100-6.143 3.071 3.071 0 000 6.143z" fill="#00C805"/><path d="M678.929 140.296a3.071 3.071 0 100-6.143 3.071 3.071 0 000 6.143zm0 12.289a3.071 3.071 0 100-6.143 3.071 3.071 0 000 6.143z" fill="#00C805"/><path opacity=".5" d="M678.929 164.875a3.072 3.072 0 10-.002-6.144 3.072 3.072 0 00.002 6.144z" fill="#00C805"/><path d="M678.929 91.151a3.072 3.072 0 10-.001-6.143 3.072 3.072 0 00.001 6.143z" fill="#00C805"/><path opacity=".5" d="M678.929 103.44a3.072 3.072 0 10-.001-6.146 3.072 3.072 0 00.001 6.146z" fill="#00C805"/><path d="M605.23 78.851a3.072 3.072 0 10-.001-6.143 3.072 3.072 0 00.001 6.143zm12.285-12.289a3.072 3.072 0 10-.001-6.143 3.072 3.072 0 00.001 6.143zm0 12.289a3.072 3.072 0 10-.001-6.143 3.072 3.072 0 00.001 6.143zm12.274-12.289a3.072 3.072 0 10-.001-6.143 3.072 3.072 0 00.001 6.143zm0 12.289a3.072 3.072 0 10-.001-6.143 3.072 3.072 0 00.001 6.143z" fill="#00C805"/><path opacity=".5" d="M642.074 66.562a3.072 3.072 0 10-.001-6.143 3.072 3.072 0 00.001 6.143z" fill="#00C805"/><path d="M642.074 78.851a3.072 3.072 0 10-.001-6.143 3.072 3.072 0 00.001 6.143zm12.285-12.289a3.072 3.072 0 10-.001-6.143 3.072 3.072 0 00.001 6.143zm0 12.289a3.072 3.072 0 10-.001-6.143 3.072 3.072 0 00.001 6.143zm12.285-12.289a3.072 3.072 0 10-.001-6.143 3.072 3.072 0 00.001 6.143zm0 12.289a3.072 3.072 0 10-.001-6.143 3.072 3.072 0 00.001 6.143zm12.285-12.289a3.072 3.072 0 10-.001-6.143 3.072 3.072 0 00.001 6.143z" fill="#00C805"/><path opacity=".5" d="M678.929 78.851a3.072 3.072 0 10-.001-6.143 3.072 3.072 0 00.001 6.143z" fill="#00C805"/><path d="M678.929 115.729a3.071 3.071 0 100-6.143 3.071 3.071 0 000 6.143zm-49.14-60.947a3.072 3.072 0 10-.001-6.144 3.072 3.072 0 00.001 6.144z" fill="#00C805"/><path opacity=".5" d="M642.074 42.492a3.072 3.072 0 10-.001-6.143 3.072 3.072 0 00.001 6.143zm0 12.29a3.072 3.072 0 10-.001-6.144 3.072 3.072 0 00.001 6.144z" fill="#00C805"/><path d="M654.359 30.203a3.072 3.072 0 10-.001-6.143 3.072 3.072 0 00.001 6.143zm0 12.289a3.072 3.072 0 10-.001-6.143 3.072 3.072 0 00.001 6.143zm0 12.29a3.072 3.072 0 10-.001-6.144 3.072 3.072 0 00.001 6.144zm12.285-24.579a3.072 3.072 0 10-.001-6.143 3.072 3.072 0 00.001 6.143zm0 12.289a3.072 3.072 0 10-.001-6.143 3.072 3.072 0 00.001 6.143zm0 12.29a3.072 3.072 0 10-.001-6.144 3.072 3.072 0 00.001 6.144zm12.285-24.579a3.072 3.072 0 10-.001-6.143 3.072 3.072 0 00.001 6.143zm0-11.759a3.072 3.072 0 10-.001-6.143 3.072 3.072 0 00.001 6.143zm0-12.299A3.072 3.072 0 10678.928 0a3.072 3.072 0 00.001 6.144zm0 36.347a3.072 3.072 0 10-.001-6.143 3.072 3.072 0 00.001 6.143zm-86.006 48.659a3.072 3.072 0 10-.001-6.143 3.072 3.072 0 00.001 6.143zM556.09 103.44a3.072 3.072 0 10-.001-6.146 3.072 3.072 0 00.001 6.146zm-12.285 0a3.072 3.072 0 10-.001-6.146 3.072 3.072 0 00.001 6.146zm24.57 0a3.072 3.072 0 10-.001-6.146 3.072 3.072 0 00.001 6.146zm-24.57-12.289a3.072 3.072 0 10-.001-6.143 3.072 3.072 0 00.001 6.143zm12.285 0a3.072 3.072 0 10-.001-6.143 3.072 3.072 0 00.001 6.143zm12.285 0a3.072 3.072 0 10-.001-6.143 3.072 3.072 0 00.001 6.143zm-36.844 12.289a3.072 3.072 0 10-.001-6.146 3.072 3.072 0 00.001 6.146zm0-12.289a3.072 3.072 0 10-.001-6.143 3.072 3.072 0 00.001 6.143z" fill="#00C805"/><path opacity=".5" d="M667.071 18.145A3.072 3.072 0 10667.07 12a3.072 3.072 0 00.001 6.144z" fill="#00C805"/><path d="M678.929 54.782a3.072 3.072 0 10-.001-6.144 3.072 3.072 0 00.001 6.144zM445.547 177.196a3.071 3.071 0 100-6.143 3.071 3.071 0 000 6.143z" fill="#00C805"/><path opacity=".5" d="M445.547 152.618a3.072 3.072 0 10-.002-6.144 3.072 3.072 0 00.002 6.144z" fill="#00C805"/><path d="M445.547 164.907a3.072 3.072 0 10-.002-6.144 3.072 3.072 0 00.002 6.144zm12.274 12.289a3.071 3.071 0 100-6.143 3.071 3.071 0 000 6.143z" fill="#00C805"/><path opacity=".5" d="M457.821 152.618a3.072 3.072 0 10-.002-6.144 3.072 3.072 0 00.002 6.144z" fill="#00C805"/><path d="M457.821 164.907a3.072 3.072 0 10-.002-6.144 3.072 3.072 0 00.002 6.144z" fill="#00C805"/><path opacity=".5" d="M470.106 177.196a3.071 3.071 0 100-6.143 3.071 3.071 0 000 6.143zm0-24.578a3.072 3.072 0 10-.002-6.144 3.072 3.072 0 00.002 6.144z" fill="#00C805"/><path d="M470.106 164.907a3.072 3.072 0 10-.002-6.144 3.072 3.072 0 00.002 6.144z" fill="#00C805"/><path opacity=".5" d="M494.676 128.018a3.071 3.071 0 100-6.143 3.071 3.071 0 000 6.143z" fill="#00C805"/><path d="M506.961 128.018a3.071 3.071 0 100-6.143 3.071 3.071 0 000 6.143zm0-12.289a3.071 3.071 0 100-6.143 3.071 3.071 0 000 6.143zm12.285 12.289a3.071 3.071 0 100-6.143 3.071 3.071 0 000 6.143z" fill="#00C805"/><path opacity=".5" d="M519.246 103.44a3.072 3.072 0 10-.001-6.146 3.072 3.072 0 00.001 6.146z" fill="#00C805"/><path d="M519.246 115.729a3.071 3.071 0 100-6.143 3.071 3.071 0 000 6.143zm-122.839 73.734a3.071 3.071 0 100-6.143 3.071 3.071 0 000 6.143zm12.285 0a3.071 3.071 0 100-6.143 3.071 3.071 0 000 6.143zm0-12.289a3.071 3.071 0 100-6.143 3.071 3.071 0 000 6.143zm-12.285 0a3.071 3.071 0 100-6.143 3.071 3.071 0 000 6.143z" fill="#00C805"/><path opacity=".5" d="M420.977 189.463a3.071 3.071 0 100-6.143 3.071 3.071 0 000 6.143z" fill="#00C805"/><path d="M420.955 177.174a3.071 3.071 0 100-6.143 3.071 3.071 0 000 6.143zm-49.107 12.289a3.071 3.071 0 100-6.143 3.071 3.071 0 000 6.143zm12.274 0a3.071 3.071 0 100-6.143 3.071 3.071 0 000 6.143zm-.011-12.289a3.071 3.071 0 100-6.143 3.071 3.071 0 000 6.143zm49.151-12.278a3.071 3.071 0 100-6.143 3.071 3.071 0 000 6.143zm-12.307 0a3.071 3.071 0 100-6.143 3.071 3.071 0 000 6.143zm12.307 12.278a3.071 3.071 0 100-6.143 3.071 3.071 0 000 6.143z" fill="#00C805"/><path opacity=".5" d="M420.955 152.607a3.071 3.071 0 100-6.143 3.071 3.071 0 000 6.143z" fill="#00C805"/><path d="M433.24 152.607a3.071 3.071 0 100-6.143 3.071 3.071 0 000 6.143z" fill="#00C805"/><path opacity=".5" d="M396.407 164.896a3.071 3.071 0 100-6.143 3.071 3.071 0 000 6.143z" fill="#00C805"/><path d="M408.692 152.607a3.071 3.071 0 100-6.143 3.071 3.071 0 000 6.143zm0 12.289a3.071 3.071 0 100-6.143 3.071 3.071 0 000 6.143z" fill="#00C805"/></svg>