<svg width="120" height="100" fill="none" xmlns="http://www.w3.org/2000/svg"><g clip-path="url(#clip0_1_2)"><g fill="#635BFF"><path opacity=".7" d="M52 44.268c1.333.77 1.333 2.694 0 3.464L17.5 67.651c-1.333.77-3-.193-3-1.732V26.08c0-1.54 1.667-2.501 3-1.732L52 44.268z"/><path opacity=".7" d="M40 44.268c1.333.77 1.333 2.694 0 3.464L5.5 67.651c-1.333.77-3-.193-3-1.732V26.08c0-1.54 1.667-2.501 3-1.732L40 44.268z"/></g><path opacity=".7" d="M40 44.268c1.333.77 1.333 2.694 0 3.464L5.5 67.651c-1.333.77-3-.193-3-1.732V26.08c0-1.54 1.667-2.501 3-1.732L40 44.268z" fill="#43C4ED"/></g><defs><clipPath id="clip0_1_2"><path fill="#fff" d="M0 0h120v100H0z"/></clipPath></defs></svg>